<svg width="999" height="600" viewBox="0 0 999 600" fill="none" xmlns="http://www.w3.org/2000/svg">
<path d="M210.128 234.229C230.618 238.169 249.828 252.959 263.068 268.729C271.728 279.049 277.648 291.689 286.068 302.169L297.148 244.729C297.288 239.499 292.068 231.139 290.348 225.469C284.658 206.729 287.638 191.559 289.078 172.799C289.788 163.479 285.497 146.499 301.057 151.319C302.727 143.269 296.708 123.799 303.698 118.479C304.838 117.609 307.087 116.829 308.527 116.309C320.017 112.199 352.188 111.959 364.068 114.809C366.388 115.369 372.587 117.459 374.057 119.079C378.957 124.499 375.588 144.319 375.098 151.679C376.078 154.809 385.797 151.379 388.497 157.319C391.197 163.259 385.477 168.959 386.017 169.289C388.087 170.559 389.597 171.229 390.547 174.249C393.177 182.569 386.867 184.559 386.217 187.899C385.917 189.459 387.747 192.079 387.487 194.409C387.337 195.739 384.867 201.409 384.047 202.549C383.337 203.529 381.117 204.049 381.057 204.749C380.927 206.169 384.387 207.409 381.507 214.249C378.437 221.559 374.527 219.909 370.987 223.709C369.017 225.829 368.007 229.719 365.517 232.229C362.537 235.229 355.587 239.159 351.717 241.409C349.027 242.969 343.297 244.029 342.467 247.119C341.817 254.299 340.677 261.519 340.037 268.699C336.857 304.249 337.587 344.869 328.757 379.309C316.377 427.589 280.518 427.539 249.428 394.749C245.638 390.749 241.768 383.929 238.128 380.569C237.148 379.659 236.708 378.739 235.108 379.109L224.088 440.539C223.978 442.169 223.908 442.209 225.548 441.999C247.208 439.199 263.488 421.189 286.578 420.059C290.448 419.869 296.268 420.719 300.108 421.509C306.958 422.919 315.378 428.199 320.598 428.999C329.908 430.439 342.317 428.079 351.987 428.999C355.827 401.519 363.187 374.659 370.297 347.909C370.857 345.789 373.058 341.109 373.068 339.719C373.068 339.169 366.627 336.569 366.027 331.559C365.527 327.429 368.347 319.479 369.517 315.159C376.937 287.589 388.797 261.319 397.497 234.239C406.197 207.159 421.137 179.869 432.787 152.599C430.827 145.819 432.067 136.699 430.537 130.279C429.687 126.709 424.968 122.429 423.198 117.629C409.498 80.4193 432.068 26.8593 469.698 12.7093C480.628 8.59932 483.948 10.6993 494.068 9.90934C500.148 9.43934 508.008 5.97933 515.418 5.45933C575.188 1.33933 599.158 43.5993 610.368 95.3593C616.888 125.439 614.988 158.189 631.418 185.209C643.708 205.439 663.288 218.799 665.698 244.849C666.488 253.309 664.177 262.419 664.797 269.709C664.917 271.129 667.488 279.769 667.938 280.069C668.758 280.629 671.707 279.929 673.247 280.239C679.177 281.419 684.167 286.279 681.787 292.629C681.037 294.639 679.367 295.679 678.997 296.869C678.027 299.989 683.798 335.569 685.068 341.359L688.787 351.109C697.687 331.409 705.887 311.149 716.257 292.149C726.297 273.749 741.008 250.859 760.428 241.399C764.178 239.569 768.437 239.219 771.737 236.719C746.607 234.219 734.007 210.619 729.257 188.289C723.767 162.479 724.687 106.759 733.007 82.1093C734.007 79.1493 736.417 76.8393 735.777 73.3893C721.577 72.3493 708.887 64.6393 713.257 48.3793C714.557 43.5493 720.808 40.3993 721.608 37.7193C722.488 34.7693 720.678 31.4793 720.858 28.0793C721.358 18.6293 728.107 9.51933 736.787 5.95933C755.677 -1.79067 774.718 9.60934 793.338 12.3493C828.708 17.5593 881.248 1.01931 897.888 44.6993C898.828 47.1693 898.818 51.7193 900.188 53.3893C901.228 54.6593 907.898 56.0893 910.608 57.9593C945.338 81.9093 916.227 148.669 897.497 175.599C891.517 184.199 884.698 190.399 877.648 197.709C872.068 203.499 878.857 210.129 878.747 217.179C906.977 221.309 940.428 233.929 959.618 255.719C986.368 286.109 988.728 332.929 990.618 371.589C993.248 425.499 994.328 490.769 990.618 544.419C990.318 548.769 988.237 555.359 988.527 559.419C988.827 563.739 997.408 569.139 998.408 573.599C999.158 576.959 999.037 591.749 998.037 594.839C995.937 601.399 989.448 598.859 985.158 598.819C662.418 596.019 339.478 599.679 16.7075 598.819C11.5275 598.809 4.68759 601.389 1.39759 595.239C-0.332408 592.019 -0.232432 577.669 0.497568 573.619C1.97757 565.429 15.0876 558.539 15.1376 553.459C15.1876 549.279 13.4576 542.739 13.2576 538.429C10.8376 487.809 12.6175 435.219 14.2075 384.539C14.7875 366.039 10.2575 354.919 9.20753 337.679C6.14753 287.519 37.1775 250.119 82.9575 233.489C87.0575 231.999 101.958 228.849 103.748 227.299C105.778 225.549 108.498 211.229 109.068 207.639C109.768 203.239 112.438 177.269 111.118 175.359C95.5376 175.139 85.4575 162.209 83.4575 147.559C82.8275 142.909 83.9875 137.179 82.9475 133.079C81.7375 128.299 76.9375 120.569 75.1675 114.879C66.4575 86.8893 70.1976 56.7393 95.8876 39.6093C97.8676 38.2893 101.558 37.3493 102.898 36.1293C106.268 33.0593 109.228 27.0293 114.258 23.0093C137.958 4.05934 199.838 -1.69066 229.648 0.409337C265.678 2.94934 279.077 34.8393 246.167 54.9993C250.717 65.9393 255.498 77.8093 256.138 89.8193C256.798 102.219 251.628 111.249 252.098 124.829C253.268 158.669 255.797 198.889 228.027 223.649L210.118 234.209L210.128 234.229Z" fill="#141414"/>
<path d="M984.607 556.929L912.617 482.469C917.287 471.029 923.687 460.129 928.827 448.709C933.527 438.279 937.427 427.479 942.157 417.029C942.597 416.049 942.517 414.249 942.647 414.069C943.177 413.349 951.557 417.569 954.097 413.029C960.477 388.649 969.197 364.319 972.147 339.149C972.727 334.249 970.417 331.649 968.537 336.559C964.987 345.809 963.207 362.869 960.557 373.539C958.117 383.329 955.207 394.529 952.137 404.079C951.567 405.849 950.617 410.569 949.017 410.999C922.407 405.549 896.477 397.459 870.717 389.059L895.527 307.469C891.487 300.039 888.497 312.929 887.417 316.399C879.807 340.729 874.257 365.759 865.877 389.869C864.417 393.659 871.157 393.409 871.667 394.129C873.227 396.299 854.447 437.749 855.587 444.929C853.427 444.989 851.337 445.879 849.197 446.029C837.127 446.879 811.217 435.979 797.957 432.329C785.747 428.969 773.387 425.449 760.767 424.049C760.337 414.249 760.187 404.389 759.767 394.589C758.657 368.769 758.357 343.509 760.767 317.659C761.097 314.109 763.807 304.639 762.297 302.139C760.537 299.219 758.387 303.289 757.987 304.889C756.367 311.399 755.147 325.609 754.767 332.639C753.787 350.819 755.507 369.819 754.767 388.089C738.647 383.889 722.477 379.269 707.447 371.969C700.427 368.559 693.307 365.959 691.217 357.639C696.767 343.909 702.567 330.169 708.947 316.809C720.477 292.669 735.977 260.439 760.107 247.069C772.347 240.289 785.187 238.689 798.747 236.249C797.637 267.499 824.727 282.709 851.647 266.639C863.167 259.759 871.167 248.559 876.197 236.229C877.367 233.349 879.237 224.619 880.197 223.239C880.757 222.419 881.157 222.309 882.117 222.299C885.317 222.249 893.367 224.579 896.917 225.539C973.977 246.469 982.207 297.189 985.637 368.619C988.337 424.799 989.277 482.309 985.637 538.449C985.237 544.589 985.087 550.799 984.627 556.929H984.607Z" fill="#3F7956"/>
<path d="M470.918 211.299C472.588 230.349 483.138 245.509 501.928 250.729C533.858 259.609 564.358 242.219 574.458 211.229C605.238 220.139 631.818 234.299 651.798 259.749C653.808 262.309 663.908 276.779 663.798 278.709C663.688 280.639 658.158 280.04 656.558 280.43C647.008 282.77 644.818 289.649 651.648 296.889C649.378 311.779 647.788 327.509 644.548 342.349C644.068 344.559 643.598 346.879 642.608 348.909C632.898 351.399 622.748 351.549 612.858 353.129C609.258 336.399 608.658 317.369 604.538 300.959C603.848 298.209 604.178 297.779 600.868 298.169L614.898 396.62C600.668 397.61 586.538 399.489 572.388 401.079C555.208 403.009 537.658 404.229 520.538 407.199C509.778 409.069 496.258 414.119 486.428 415.059C475.428 416.119 452.458 415.939 441.918 413.599C432.308 411.469 432.518 411.449 430.428 402.109C422.468 366.649 419.288 330.809 426.258 294.959C427.068 290.789 428.928 286.259 429.548 282.219C429.748 280.919 430.338 278.579 428.458 278.189C426.108 277.699 424.947 282.689 424.467 284.169C417.687 304.959 417.747 328.459 417.967 350.109C405.787 347.329 393.158 344.069 381.778 338.839C380.198 338.109 371.627 333.63 371.217 332.93C369.797 330.48 372.677 321.309 373.497 318.139C379.197 296.209 390.427 260.779 404.997 243.729C421.217 224.759 446.278 213.619 470.898 211.279L470.918 211.299Z" fill="#EB5839"/>
<path d="M104.187 232.239C105.377 248.929 122.677 270.419 137.487 277.379C170.837 293.059 193.967 268.099 197.137 236.229C227.267 238.789 250.187 258.049 266.917 281.869C271.077 287.799 281.207 302.229 283.577 308.229C284.927 311.649 281.127 318.589 279.477 322.039C275.807 329.729 269.997 338.559 264.917 345.449C256.907 356.319 247.117 367.649 235.127 374.099C237.437 347.979 238.627 321.969 238.117 295.679C237.957 294.409 234.447 295.139 234.267 296.819L233.167 341.669C231.247 362.529 230.267 383.539 226.847 404.279C224.757 416.919 221.257 429.369 219.097 441.989L123.147 438.579C118.067 424.699 113.437 410.469 110.227 396.109C114.387 395.049 118.587 395.489 116.967 389.839L99.5267 322.379C97.4867 319.069 94.3467 320.149 95.4367 324.379L112.187 391.029C85.5067 398.289 58.5468 405.909 33.2668 417.039C25.8968 390.419 15.0668 362.449 13.2668 334.619C9.72682 279.679 55.0468 243.449 104.207 232.219L104.187 232.239Z" fill="#F8AD4E"/>
<path d="M192.137 236.239C192.927 251.259 179.347 274.999 163.577 277.119C145.847 279.499 131.567 270.199 120.667 257.239C116.817 252.659 108.507 239.369 108.247 233.669C108.067 229.649 112.037 217.769 112.907 212.479C115.207 198.589 115.777 184.369 116.187 170.299C96.4472 173.959 85.6273 153.489 88.6473 136.289C90.2473 127.179 98.2673 115.919 107.707 124.329C113.487 129.489 115.447 143.389 124.587 132.259C135.667 118.769 134.347 95.3194 130.177 79.3994L156.657 78.3994C180.867 74.6194 205.287 70.5394 228.357 62.1594C230.257 61.4694 235.737 58.4194 236.627 58.3794C239.167 58.2694 241.827 67.0994 242.567 69.4394C247.637 85.4694 246.507 99.5094 247.097 115.859C248.487 154.899 253.897 218.039 204.337 229.959C187.947 233.899 163.527 232.049 150.217 220.709C148.757 219.459 147.357 215.899 145.677 216.269C143.817 216.679 143.947 219.689 144.667 221.259C146.187 224.559 159.387 231.349 163.167 232.739C165.547 233.609 174.697 236.249 176.647 236.249H192.137V236.239Z" fill="#F08156"/>
<path d="M802.898 235.389C814.438 231.399 825.828 227.669 833.698 217.739C834.588 216.609 840.478 208.109 836.218 208.289C835.048 208.339 828.118 217.599 826.208 219.239C807.278 235.519 766.678 239.629 748.808 219.729C727.158 195.629 729.558 145.329 731.748 114.809C732.768 100.519 735.358 87.6294 740.798 74.3894C742.648 74.7294 744.278 75.3694 746.228 75.4494C768.838 76.2894 794.118 73.4594 816.228 75.4094C825.668 76.2394 839.058 81.6194 842.038 91.5594C844.468 99.6694 841.178 109.369 841.838 117.739C842.568 127.039 848.008 145.939 860.758 141.879C866.698 139.989 871.898 123.019 882.668 130.859C895.818 140.439 882.628 170.919 867.938 173.119C865.888 173.429 862.198 171.819 861.708 173.819C861.318 175.379 864.508 180.929 865.218 183.289C869.138 196.269 871.738 209.789 875.788 222.759C871.808 240.799 859.378 261.109 840.948 266.939C817.798 274.269 802.548 257.939 802.908 235.389H802.898Z" fill="#F5A371"/>
<path d="M993.618 575.909V594.889C989.058 594.579 984.638 595.059 980.168 595.929H15.7078C13.7278 595.379 5.25781 595.099 5.25781 593.389V575.909H993.618Z" fill="#E1884F"/>
<path d="M563.897 150.319C563.677 161.359 560.557 172.969 559.897 183.789C559.417 191.729 559.737 200.159 565.357 206.309C566.807 207.899 569.857 208.559 569.747 210.559C564.017 228.259 550.837 241.659 532.697 246.509C507.437 253.259 478.107 241.789 475.957 213.259C478.697 212.989 480.927 214.849 483.517 215.179C505.267 217.959 524.477 210.989 540.437 196.299C542.667 194.249 554.427 181.909 551.897 179.289C549.687 176.999 545.467 184.219 544.427 185.299C490.237 241.169 438.537 199.739 434.937 132.879C432.837 93.9393 440.707 43.2193 486.897 35.8393C488.457 35.5893 489.247 37.6793 490.687 38.1793C495.827 39.9793 501.687 40.6093 506.917 42.9293C532.307 54.1993 539.137 84.8993 554.477 104.279C555.877 106.039 564.557 115.199 565.867 115.879C568.577 117.309 569.457 112.679 570.887 110.849C578.607 101.009 591.747 108.969 592.877 119.829C594.637 136.679 581.547 153.409 563.897 150.309V150.319Z" fill="#F5A471"/>
<path d="M872.698 195.279C871.288 189.829 871.138 183.899 868.788 178.769C883.108 172.699 894.348 156.679 892.678 140.819C891.298 127.669 878.768 119.439 867.188 128.339C864.228 130.619 859.828 138.999 856.668 137.949C850.918 136.039 847.378 124.209 846.808 118.739C845.388 105.079 851.808 94.7694 842.118 82.4694C834.458 72.7494 820.908 70.9494 809.268 70.3494C788.228 69.2694 737.988 74.9794 722.268 64.4094C715.608 59.9394 714.818 53.2094 719.788 46.9094C721.618 44.5894 727.158 41.7194 727.638 39.7194C727.978 38.3094 726.748 35.9094 726.728 33.9594C726.638 25.7794 726.498 18.3094 733.838 12.9994C749.198 1.86939 773.598 13.3394 790.518 16.1494C821.618 21.3094 878.898 7.33938 892.858 44.7094C894.218 48.3494 894.448 56.5494 895.578 57.9794C897.218 60.0594 904.298 58.6794 909.158 62.3894C933.148 80.6794 918.948 122.559 908.838 144.989C900.358 163.799 889.048 182.489 872.688 195.259L872.698 195.279Z" fill="#D86342"/>
<path d="M119.318 442.909C130.078 443.699 140.888 443.519 151.668 444.039C175.418 445.189 218.678 450.219 240.098 442.529C263.818 434.009 275.118 418.739 303.868 426.749C308.958 428.169 330.198 439.009 329.818 444.549C329.778 445.089 327.098 447.769 326.568 447.799C325.728 447.849 314.458 440.959 311.748 439.849C304.288 436.809 296.218 434.499 288.088 435.039C287.078 440.229 296.578 439.609 300.898 440.709C307.018 442.259 324.608 448.909 326.628 454.969C330.378 466.239 314.548 454.559 311.428 453.169C305.868 450.699 292.408 447.019 286.548 446.979C282.828 446.959 281.178 450.599 285.048 451.529C288.918 452.459 293.718 452.539 298.098 453.509C302.858 454.559 308.068 455.949 312.408 458.189C314.798 459.419 321.858 463.649 321.058 466.479C319.558 471.819 298.858 464.549 294.478 464.129C276.778 462.429 276.108 470.459 263.438 476.829C255.838 480.649 248.908 480.239 240.578 480.039C212.828 479.379 184.188 488.929 156.368 493.679C147.498 495.189 138.488 496.709 129.568 497.859C97.938 501.949 78.348 507.039 61.688 475.049C52.628 457.639 46.718 436.609 40.248 418.069L105.198 397.079L119.328 442.909H119.318Z" fill="#F08156"/>
<path d="M683.038 505.739C679.068 502.059 691.108 494.309 693.888 492.569C702.408 487.219 711.438 485.529 719.768 480.499C718.538 478.729 717.318 478.829 715.378 479.049C708.048 479.849 694.618 486.789 688.478 491.159C685.418 493.339 678.258 500.779 675.858 501.569C673.818 502.239 669.278 501.459 668.838 499.419C668.658 498.619 673.308 492.119 674.308 490.979C679.618 484.929 690.398 477.669 697.818 474.529C701.308 473.049 712.068 470.829 713.768 469.499C717.068 466.919 712.378 465.749 709.528 466.239C697.548 468.299 678.768 479.289 670.838 488.519C668.458 491.299 666.858 497.739 662.248 494.069C659.148 491.599 662.278 488.069 663.998 485.679C671.348 475.439 686.478 463.969 698.578 460.309C720.888 453.559 743.618 461.979 765.248 461.039C781.918 460.319 802.318 455.399 819.328 453.149C832.548 451.409 846.098 451.489 859.068 448.139C863.788 430.109 869.678 412.009 877.178 395.119L938.618 413.569C933.588 424.429 929.718 435.819 924.838 446.729C918.478 460.949 908.498 486.199 894.568 493.399C872.738 504.679 807.588 499.779 781.248 497.999C777.848 497.769 772.648 496.089 769.388 496.309C766.128 496.529 760.028 499.089 755.998 499.729C740.398 502.199 726.618 497.199 712.368 499.079C705.848 499.939 687.908 510.269 683.038 505.759V505.739Z" fill="#F5A270"/>
<path d="M660.828 263.209C642.008 237.479 618.968 222.369 589.398 211.239C584.018 209.209 571.228 206.879 568.018 202.639C560.338 192.519 567.958 168.999 568.018 156.939C568.678 154.929 574.828 154.779 577.108 154.039C593.918 148.539 605.048 121.039 592.418 107.309C586.868 101.279 574.828 99.9794 568.828 105.799C567.278 107.299 567.058 110.049 565.398 109.349C564.808 109.099 558.078 101.009 557.068 99.6893C541.338 79.1693 533.868 48.8293 506.918 37.9393C493.668 32.5893 478.078 31.4693 465.278 38.2393C438.238 52.5393 429.018 90.9793 430.978 119.339C427.858 122.699 425.258 107.889 425.098 106.749C420.118 71.8093 436.488 31.3593 470.598 17.5893C481.078 13.3593 483.488 15.5393 493.288 15.1093C498.778 14.8693 507.648 10.9893 514.438 10.4493C571.278 5.99932 594.418 44.9493 605.388 94.3493C612.818 127.779 610.218 164.839 631.028 193.599C638.478 203.899 649.328 214.109 655.028 225.549C656.088 227.669 660.838 240.369 660.838 241.719V263.199L660.828 263.209Z" fill="#4B4559"/>
<path d="M120.947 130.089C120.447 130.609 119.237 130.629 118.677 131.299C113.927 122.399 102.257 111.869 92.2468 119.889C89.0768 122.429 88.4168 127.029 85.2268 129.339C83.7568 121.899 80.1067 115.139 78.2967 107.789C72.8467 85.6193 76.2468 57.9593 96.8768 44.5993C99.7968 42.7093 104.727 41.3193 107.137 38.8693C110.357 35.5793 112.217 31.2193 116.717 27.4693C139.367 8.60933 201.777 3.20933 230.657 5.42933C255.237 7.31933 272.617 28.7793 249.017 46.8493C227.417 63.3893 168.787 73.6093 141.687 74.4793C138.307 74.5093 120.567 71.9993 119.167 72.8793C117.917 73.6693 117.787 75.2593 118.647 76.4493C119.867 78.1293 123.467 76.4093 125.107 78.9793C128.707 84.6293 128.687 103.749 127.907 110.599C127.397 115.079 123.937 126.969 120.947 130.099V130.089Z" fill="#4B4559"/>
<path d="M342.897 219.399C343.307 219.689 343.597 222.109 344.557 223.229C347.807 227.009 360.887 227.879 364.527 224.259C365.287 224.119 365.147 225.199 365.037 225.769C363.647 232.809 345.017 238.379 339.677 242.379C338.357 243.369 337.617 244.319 337.257 245.949L330.057 343.649C326.907 364.119 324.417 398.399 304.407 409.909C281.347 423.169 252.917 394.299 241.157 376.599C256.727 364.049 269.647 348.539 279.597 331.159C279.417 342.399 272.807 354.819 272.097 365.629C271.897 368.689 273.307 369.519 275.597 367.119C276.967 365.679 278.007 359.529 278.617 357.149C288.207 319.359 294.627 280.799 302.997 242.729C300.527 236.329 296.787 230.679 294.827 224.029C289.307 205.289 291.797 184.209 293.087 164.829C293.187 163.369 293.927 155.849 294.197 155.459C295.377 153.739 303.407 155.109 303.897 158.019C304.747 167.969 305.957 177.889 307.077 187.799C307.367 190.349 306.817 193.029 307.187 195.679C308.747 206.999 311.037 216.989 323.797 219.039C327.337 219.609 341.887 218.689 342.907 219.419L342.897 219.399Z" fill="#F08156"/>
<path d="M639.847 354.129C635.347 361.499 631.157 369.269 628.927 377.669C627.547 400.369 627.077 423.249 626.857 446.029C618.387 444.679 609.907 445.339 601.367 445.029C573.817 444.019 529.807 441.989 503.907 451.499C501.017 452.559 499.067 455.159 495.197 455.789C491.107 456.449 488.407 454.469 484.947 456.019C484.617 454.109 486.237 453.129 487.457 452.039C489.647 450.089 494.347 447.159 497.007 445.609C499.277 444.279 510.017 439.679 510.467 439.079C511.197 438.089 510.917 437.129 510.917 436.039C509.127 434.269 498.347 440.219 495.907 441.509C490.147 444.559 473.067 456.329 467.687 455.819C463.867 455.459 460.287 452.819 463.517 449.089C465.467 446.839 476.077 440.569 479.267 438.869C483.347 436.679 495.607 432.599 497.917 430.539C499.837 428.829 498.457 427.029 496.477 427.049C494.127 427.079 477.467 435.109 474.267 436.869C471.327 438.489 467.727 440.649 465.037 442.619C463.057 444.079 458.647 450.449 456.077 446.909C453.877 443.879 461.107 434.219 463.477 432.069C477.647 419.199 510.717 413.079 529.537 410.189C559.037 405.659 588.997 404.139 618.607 400.329C620.247 399.559 621.167 398.659 620.817 396.719L613.847 357.119L639.837 354.129H639.847Z" fill="#F5A471"/>
<path d="M631.848 456.019C639.048 457.949 666.758 460.389 670.898 454.599C673.688 450.699 670.748 426.889 671.778 420.509C672.318 417.059 672.968 414.099 672.878 410.529C672.818 408.279 671.908 398.419 671.318 397.089C669.068 392.029 653.158 391.279 647.628 389.799C645.458 389.219 633.148 384.959 632.798 383.399C632.658 372.689 639.768 364.749 644.028 355.799C652.318 338.399 651.788 317.209 656.878 298.609C657.548 293.929 650.508 291.809 653.768 286.849C655.408 284.339 672.868 284.529 675.378 286.119C681.478 289.979 674.948 293.769 673.978 297.609C677.928 313.309 676.828 333.309 682.048 348.389C685.348 357.939 693.528 367.259 694.718 377.679C696.538 393.589 695.458 419.949 694.858 436.569C694.618 443.119 693.368 450.289 693.338 457.019C686.238 460.859 678.548 464.779 672.348 470.009C669.338 472.549 661.378 482.759 659.828 483.459C653.938 486.109 638.218 482.789 634.388 476.949C633.798 476.049 631.858 471.129 631.858 470.489V455.999L631.848 456.019Z" fill="#3D7957"/>
<path d="M494.938 462.019C496.528 465.309 501.838 457.109 505.628 456.229C514.318 454.229 527.938 460.489 523.918 470.999C527.028 471.889 527.928 468.309 530.448 467.969C534.388 467.439 540.198 470.799 542.358 474.049C551.788 488.229 527.188 500.019 515.418 498.999C512.288 498.729 504.448 494.639 503.948 494.989C503.838 495.069 503.737 496.639 502.967 497.479C497.997 502.939 488.638 504.019 481.668 502.749C478.608 502.189 475.098 498.929 472.408 499.039C470.788 499.099 465.757 503.149 462.217 503.739C452.907 505.309 444.677 503.239 438.467 495.999C433.517 503.689 422.238 503.159 414.458 500.009C411.188 498.689 405.477 495.939 405.987 491.989C391.567 501.629 367.637 485.709 376.817 468.309C377.557 466.899 381.458 462.429 382.708 462.109C384.768 461.579 386.258 464.529 389.458 464.059C391.658 463.739 392.798 461.159 394.938 460.459C401.708 458.249 409.707 462.729 409.997 470.009C415.797 469.059 419.668 463.379 426.368 464.059C429.838 464.409 434.208 467.599 435.848 470.629C437.388 473.469 436.037 478.049 439.997 475.529C441.317 474.689 443.538 469.979 446.608 468.159C451.698 465.139 458.368 465.489 463.648 467.819C466.228 468.959 470.738 473.709 472.618 473.879C474.058 474.009 477.727 469.639 480.037 468.609C484.757 466.519 490.787 466.579 495.297 469.139C497.717 470.509 497.967 472.599 499.217 473.689C501.947 476.069 505.198 474.449 503.428 470.999C502.218 468.639 496.538 464.839 493.928 464.009C490.678 462.519 491.908 460.479 494.928 462.009L494.938 462.019Z" fill="#EA5833"/>
<path d="M243.887 498.27C273.727 496.71 337.077 499.039 360.507 518.979C376.257 532.389 363.607 544.339 349.917 551.309C309.607 571.829 220.107 569.119 177.147 556.419C160.337 551.449 132.327 539.059 155.147 520.439C173.917 505.129 219.897 499.509 243.887 498.259V498.27Z" fill="#FEFAE2"/>
<path d="M723.288 420.059C721.568 420.549 721.138 423.189 723.438 423.909C749.888 423.609 775.488 430.719 800.738 437.549L830.718 447.549L765.228 457.079C742.888 454.229 720.278 452.689 697.818 455.029C699.578 445.329 698.538 435.399 698.818 425.559C698.868 423.659 699.808 421.749 699.858 419.609C700.218 403.789 700.018 387.829 698.818 372.109C714.718 381.109 732.918 387.359 750.778 391.089L743.768 421.059C742.718 421.449 741.608 420.059 741.278 420.059C737.278 420.059 726.118 419.249 723.288 420.059Z" fill="#F5A270"/>
<path d="M415.987 404.079C409.297 403.689 403.787 398.529 397.007 399.079L398.037 402.539L444.977 419.069C445.407 421.369 444.798 420.659 443.688 421.289C440.297 423.229 434.757 424.729 433.967 429.049C431.697 429.219 430.917 426.919 428.557 425.979C424.487 424.359 419.738 424.719 415.708 426.269C413.648 427.059 410.677 429.769 409.337 429.899C407.547 430.069 405.597 427.199 403.967 426.599C395.817 423.599 392.387 429.419 387.377 429.759C385.947 429.859 384.237 429.019 382.567 429.019C374.057 429.019 365.527 429.099 357.027 429.059C360.927 399.539 368.717 370.659 377.057 342.169L418.557 355.059C418.907 363.439 421.887 372.269 420.997 380.609C420.237 387.699 415.397 396.289 415.987 404.079Z" fill="#F5A471"/>
<path d="M19.2571 550.929L17.207 526.499C17.387 478.639 16.6171 430.789 18.7471 383.089L29.467 419.329C32.227 424.709 34.5371 420.009 35.7471 420.079C36.7771 420.129 41.5271 436.649 42.4871 439.299C49.8171 459.529 57.237 482.719 73.157 497.619L19.2671 550.939L19.2571 550.929Z" fill="#F8AD4E"/>
<path d="M375.317 458.749C375.807 459.289 377.997 459.869 377.997 460.519C361.907 474.369 374.827 497.159 393.487 498.989C396.667 499.299 402.287 497.919 404.037 498.399C405.667 498.839 408.357 501.729 410.617 502.859C416.337 505.729 424.088 506.869 430.428 505.919C432.998 505.529 437.447 502.369 438.497 502.319C439.547 502.269 443.497 505.399 445.287 506.159C450.427 508.349 457.717 508.669 463.227 507.739C466.307 507.219 471.948 503.239 472.458 503.239C472.968 503.239 474.648 505.029 475.948 505.489C483.718 508.209 492.418 507.489 499.938 504.489C501.898 503.709 503.828 501.449 505.638 501.159C507.848 500.799 511.057 502.599 513.527 502.889C527.687 504.519 553.268 493.649 548.438 475.979C547.228 471.569 540.437 465.519 535.987 464.449C530.387 463.099 528.777 465.579 525.857 458.589L517.928 453.039C533.978 454.059 560.457 457.839 570.327 472.079C583.237 490.709 547.518 504.209 534.688 508.249C491.938 521.709 434.277 519.879 391.497 506.999C358.667 497.119 326.697 476.669 373.537 453.039C374.617 454.649 373.807 457.069 375.327 458.749H375.317Z" fill="#FEFAE2"/>
<path d="M370.017 154.319C367.817 158.209 352.247 158.039 349.497 168.279C347.507 175.669 353.007 179.159 353.017 179.799C353.017 180.159 349.537 182.839 348.707 185.459C347.247 190.089 349.207 193.209 348.787 195.639C348.167 199.149 344.557 200.209 346.247 207.569C347.057 211.089 352.207 212.679 344.297 214.019C341.607 214.479 334.207 215.129 331.547 215.079C328.887 215.029 321.987 214.089 319.777 213.029C310.557 208.599 312.027 188.509 311.057 179.789C310.067 170.919 308.747 162.879 307.057 154.319L307.977 152.319H368.827L370.017 154.319Z" fill="#F8B261"/>
<path d="M631.848 452.029V392.589C631.848 392.379 632.828 388.269 634.268 389.159C638.368 391.539 643.258 393.419 647.828 394.599C654.958 396.439 667.218 395.009 667.888 403.519C668.748 414.519 668.648 432.509 667.878 443.579C667.278 452.159 667.058 453.289 658.338 454.019C649.618 454.749 640.698 452.709 631.858 452.029H631.848Z" fill="#C1AA87"/>
<path d="M457.777 431.659C456.187 430.769 454.747 429.569 453.307 428.499C452.287 427.749 451.267 427.009 450.167 426.369C449.887 426.209 449.607 426.049 449.317 425.909C449.187 425.849 449.067 425.779 448.937 425.719C448.907 425.699 448.717 425.619 448.627 425.579C448.557 425.549 448.486 425.529 448.466 425.519C448.336 425.469 448.207 425.429 448.067 425.379C447.767 425.279 447.467 425.199 447.167 425.129C446.607 424.999 446.167 424.669 445.867 424.239C445.587 424.349 445.307 424.479 445.067 424.649C439.857 428.179 436.547 431.449 433.477 437.029C428.577 425.479 416.607 427.869 409.367 435.989C407.367 436.429 402.097 425.849 393.477 432.029C388.227 435.799 391.577 440.069 390.957 440.969C390.747 441.269 385.457 442.869 384.117 443.649C378.917 446.679 374.157 453.699 381.307 457.249C390.387 461.759 393.627 454.459 403.067 456.489C407.857 457.519 412.737 463.729 413.487 463.769C414.297 463.819 426.647 457.459 427.937 456.479C429.897 455.009 432.357 450.349 433.607 450.099C434.087 449.999 439.697 453.589 442.567 453.949C447.207 454.539 452.417 453.789 455.977 450.529C449.117 448.199 450.127 440.039 453.527 435.099C454.617 433.519 457.167 432.829 457.787 431.669L457.777 431.659Z" fill="#9FBB4B"/>
<path d="M455.487 423.929C456.487 424.659 457.467 425.409 458.467 426.139C458.607 426.239 458.747 426.339 458.887 426.439C459.717 426.309 460.907 426.269 462.637 426.329L475.947 419.069C469.687 421.019 456.617 418.529 451.587 420.209C451.137 420.359 450.857 420.659 450.627 421.019C452.367 421.759 453.967 422.819 455.487 423.929Z" fill="#F5A471"/>
<path d="M435.978 161.309C437.838 177.289 448.118 192.229 459.468 203.269L465.958 207.259C448.088 210.089 430.288 216.709 415.668 227.419C409.548 231.899 405.228 236.879 400.018 242.239C407.738 214.329 421.998 188.899 433.748 162.599L435.988 161.319L435.978 161.309Z" fill="#4B4559"/>
<path d="M307.057 154.319C306.597 151.979 303.687 126.309 305.567 126.329C311.857 128.639 318.787 129.989 325.497 130.389C340.297 131.269 358.197 131.379 372.007 126.349C372.037 135.659 371.417 145.099 370.017 154.319H307.057Z" fill="#F2F2F2"/>
<path d="M537.908 510.969C539.648 512.649 536.558 513.069 535.938 513.449C506.208 531.259 455.098 531.689 421.798 524.649C409.538 522.059 397.728 517.849 387.008 511.469C387.058 510.329 390.078 511.219 391.068 511.419C439.558 520.949 482.108 527.519 531.138 513.689C532.798 513.219 537.648 510.719 537.908 510.979V510.969Z" fill="#FEFAE2"/>
<path d="M370.017 121.359C369.747 122.949 368.107 123.229 366.827 123.649C353.797 127.899 323.677 127.389 310.417 123.489C309.077 123.099 307.377 123.129 307.067 121.359C327.537 116.119 349.557 115.889 370.027 121.359H370.017Z" fill="#EFEFEF"/>
<path d="M493.937 464.019C489.477 462.589 482.137 462.179 478.027 464.589C476.317 465.589 474.207 469.309 472.587 468.939C472.117 468.829 467.987 465.229 466.167 464.299C456.057 459.159 447.867 460.299 440.467 468.989C438.467 465.989 436.037 463.339 432.697 461.789C430.967 460.989 428.077 461.719 427.977 460.029C430.607 459.989 433.277 456.089 435.457 456.039C436.927 456.009 438.627 457.669 440.507 457.969C442.557 458.299 446.347 458.249 448.467 458.019C451.707 457.669 456.547 454.709 458.327 454.929C458.987 455.009 459.367 457.009 460.557 457.869C469.227 464.149 471.977 458.429 480.447 458.009C484.167 457.819 488.227 460.029 491.827 460.459C492.817 460.579 494.657 459.809 494.927 460.009C495.137 460.169 494.708 461.559 494.928 462.009L493.937 462.519V464.019Z" fill="#E9A962"/>
<path d="M379.728 173.509C385.168 172.299 389.008 176.059 385.898 180.669C383.318 184.479 365.098 191.289 360.278 192.059C353.718 193.099 348.528 189.019 354.658 184.419C357.308 182.429 376.438 174.239 379.728 173.509Z" fill="#F08156"/>
<path d="M377.797 157.509C385.007 156.719 385.727 162.399 380.947 166.739C378.557 168.919 365.377 175.429 362.297 176.089C356.987 177.229 352.436 174.969 354.226 168.999C355.436 164.939 373.427 157.989 377.797 157.509Z" fill="#F08156"/>
<path d="M383.007 190.289C383.767 196.439 380.497 198.119 376.027 200.789C371.557 203.459 354.527 212.089 350.957 206.609C345.077 197.539 364.787 195.259 370.007 193.779C374.437 192.529 378.377 189.869 382.997 190.289H383.007Z" fill="#F08156"/>
<path d="M378.008 207.269C380.278 218.629 358.718 223.989 351.198 221.579C347.628 220.429 346.848 219.329 350.008 216.729C358.418 211.679 368.748 210.429 378.008 207.269Z" fill="#F08156"/>
<path d="M755.767 422.059L748.727 420.499L753.777 398.089L755.767 405.569V422.059Z" fill="#6C6C6C"/>
<path d="M425.977 408.069C424.867 406.859 420.057 406.239 419.927 405.479C419.077 400.749 422.677 394.859 422.997 390.089L424.867 396.699L425.977 408.069Z" fill="#5B5B5B"/>
<path d="M279.577 569.909L270.087 571.909H991.617L985.617 565.919C980.157 557.059 965.037 543.239 957.157 534.929C941.747 518.689 925.947 502.849 910.057 487.059C908.037 486.609 907.427 489.709 906.337 490.659C883.287 510.719 831.217 504.369 802.237 502.989C792.297 502.519 780.737 500.959 771.267 500.909C765.167 500.879 755.527 504.629 748.317 505.029C734.667 505.799 721.387 500.929 708.037 504.719C700.397 506.889 693.807 511.839 685.297 511.009C679.607 510.449 679.127 506.179 678.137 505.949C675.447 505.319 672.487 506.709 669.077 505.229C666.567 504.139 666.357 501.839 664.747 500.579C663.447 499.559 660.937 499.229 659.557 498.039C657.117 495.949 656.537 491.039 656.847 487.999C647.867 488.649 635.877 487.179 630.397 478.979C629.897 478.239 627.857 473.889 627.857 473.519V450.039C597.207 448.709 566.517 446.239 535.917 450.039C535.677 451.449 537.687 451.479 538.697 451.729C549.827 454.479 558.677 455.809 567.907 463.499C585.077 477.809 576.777 492.279 560.597 502.169C556.497 504.679 550.577 506.129 546.947 508.509C542.997 511.099 540.237 515.699 535.217 518.759C500.797 539.809 415.907 537.439 383.087 513.379C380.607 511.559 378.927 508.869 376.347 507.129C366.937 500.769 356.287 498.659 349.607 487.909C338.997 470.809 353.067 459.239 366.967 451.479C368.927 450.389 371.997 449.969 373.427 448.939C374.897 447.889 375.747 444.669 377.987 442.509C381.897 438.739 387.637 439.369 386.007 433.029H327.037C329.827 437.339 338.367 442.219 333.477 447.969C332.617 448.979 330.507 449.379 330.117 450.659C329.307 453.319 333.547 455.919 330.917 460.379C329.577 462.659 326.997 463.039 325.967 464.439C324.847 465.949 325.207 468.049 324.107 469.569C318.437 477.369 300.387 468.809 292.447 468.119C277.937 466.859 268.417 482.779 252.507 484.909C243.997 486.049 236.237 482.309 228.707 483.079C209.287 485.059 183.637 493.059 163.337 496.669C141.447 500.559 105.327 508.349 84.3874 503.279C81.8974 502.679 79.6473 500.319 76.9073 501.109C54.4173 524.669 28.9974 545.739 7.23736 569.909C6.95736 570.219 4.27736 571.279 5.73736 571.909H245.577L239.587 569.909C233.067 569.369 225.467 569.599 219.097 568.909C218.117 568.799 216.087 568.139 214.097 567.909C203.907 566.719 193.037 565.469 183.117 562.909C175.537 560.959 164.767 557.219 157.457 553.089C126.897 535.839 147.757 516.009 170.857 507.189C215.377 490.189 312.787 487.219 355.027 510.429C382.027 525.269 374.207 544.929 349.687 556.079C340.307 560.349 329.677 563.059 319.537 564.909C319.037 565.069 318.977 565.429 319.027 565.889C305.867 567.159 292.847 570.369 279.557 569.889L279.577 569.909Z" fill="#E99451"/>
<path d="M223.117 186.289C220.307 207.169 194.237 216.419 178.127 202.779C174.527 199.729 164.947 186.219 170.077 182.719C172.097 181.339 189.447 185.809 193.627 186.279C197.807 186.749 204.557 187.289 208.597 187.349C213.447 187.429 218.167 185.529 223.107 186.279L223.117 186.289Z" fill="#111111"/>
<path d="M219.877 166.069C220.927 165.029 221.237 162.529 220.957 161.049C220.147 156.799 214.507 147.249 212.627 142.319C211.817 140.189 208.877 132.509 209.257 131.039C209.437 130.359 211.337 128.359 211.607 128.359C213.527 128.339 216.577 139.759 217.627 142.299C220.547 149.329 229.477 162.839 222.617 169.319C218.927 172.809 209.277 173.789 205.127 170.799C206.937 164.159 216.487 169.419 219.857 166.069H219.877Z" fill="#131313"/>
<path d="M192.127 106.359C191.537 106.929 179.117 104.889 175.697 105.419C171.687 106.039 168.557 110.179 164.157 109.359C165.267 100.259 179.967 98.9394 187.167 100.839C188.897 101.299 194.157 104.399 192.127 106.359Z" fill="#151515"/>
<path d="M216.128 105.359C214.018 93.9994 239.898 96.0493 241.098 101.879C242.048 106.479 230.738 102.159 227.588 102.299C223.358 102.489 220.128 104.639 216.128 105.359Z" fill="#141414"/>
<path d="M167.158 139.329C164.198 136.529 175.038 130.799 177.728 130.429C181.708 129.869 192.148 131.329 193.138 135.849C194.218 140.829 186.758 135.849 185.438 135.559C183.348 135.109 180.858 135.149 178.738 135.419C175.898 135.789 168.468 140.549 167.168 139.329H167.158Z" fill="#121212"/>
<path d="M243.848 128.579C244.948 129.589 245.328 131.879 243.538 132.309C241.098 132.899 236.448 130.529 233.618 130.529C231.348 130.529 217.338 135.229 224.578 128.299C228.738 124.319 239.908 124.949 243.848 128.579Z" fill="#141414"/>
<path d="M772.758 167.309C772.398 176.689 753.858 173.579 748.408 170.169C736.308 162.599 757.478 146.459 761.598 139.659C763.098 137.189 766.588 126.559 767.278 126.359C773.048 124.659 769.018 134.459 767.948 137.019C766.628 140.169 764.748 143.059 762.758 145.819C759.518 150.279 745.178 161.339 751.398 166.209C757.378 170.899 766.118 168.689 772.768 167.319L772.758 167.309Z" fill="#111111"/>
<path d="M800.258 182.299C801.588 181.999 802.818 183.489 802.778 184.809C802.628 190.069 787.148 198.809 782.298 200.329C777.788 201.739 760.508 204.149 758.858 198.689C757.208 193.229 764.758 197.019 767.258 197.299C775.728 198.229 782.669 196.339 789.699 191.739C791.859 190.329 799.568 182.469 800.258 182.309V182.299Z" fill="#121212"/>
<path d="M746.478 123.479C755.918 121.079 754.298 145.319 744.798 137.799C741.338 135.059 741.678 124.699 746.478 123.479Z" fill="#161616"/>
<path d="M813.728 110.359C812.358 111.729 803.968 106.099 801.008 105.609C795.828 104.749 791.418 107.909 787.768 104.879C790.108 96.4693 810.828 101.569 813.238 106.369C813.688 107.269 814.078 110.019 813.728 110.369V110.359Z" fill="#121212"/>
<path d="M793.438 126.479C800.518 124.409 802.768 140.219 795.208 141.359C787.428 142.539 788.528 127.919 793.438 126.479Z" fill="#181818"/>
<path d="M761.758 107.359C756.218 106.649 753.518 104.689 747.498 105.599C745.938 105.829 739.868 109.129 740.788 104.889C742.118 98.6893 763.668 97.8193 761.768 107.369L761.758 107.359Z" fill="#121212"/>
<path d="M465.957 159.309C479.347 160.579 490.587 162.239 504.167 160.039C507.747 159.459 516.377 156.289 518.487 156.319C523.787 156.399 519.597 166.499 518.307 169.179C505.877 195.039 467.467 188.139 465.957 159.309Z" fill="#101010"/>
<path d="M484.937 103.369C486.777 114.379 479.677 122.939 476.477 132.359C472.487 144.059 480.507 143.379 489.417 144.319C490.667 144.449 490.487 147.769 487.457 148.319C482.067 149.309 474.977 147.709 471.907 142.879C467.387 135.769 475.257 126.209 477.717 119.609C479.257 115.499 480.197 106.589 481.447 104.359C482.237 102.939 483.677 103.359 484.947 103.369H484.937Z" fill="#111111"/>
<path d="M444.997 86.3593C444.797 86.1993 443.987 83.8493 444.867 82.8593C449.697 77.4393 466.717 78.2893 472.327 82.5093C474.427 84.0893 474.617 86.8593 472.387 87.3393C471.487 87.5293 465.057 84.6393 462.477 84.3693C460.147 84.1293 456.917 84.2093 454.567 84.4793C452.617 84.6993 446.097 87.2093 445.007 86.3593H444.997Z" fill="#121212"/>
<path d="M500.938 85.3793C500.418 84.6893 501.808 82.1093 502.658 81.3393C508.298 76.3093 531.828 77.5093 531.948 84.8693C532.038 90.1293 526.028 85.3093 524.198 84.5993C519.078 82.6193 515.627 81.6093 510.107 83.0793C508.187 83.5893 502.468 87.4093 500.928 85.3793H500.938Z" fill="#121212"/>
<path d="M458.658 105.529C467.928 102.719 466.637 121.179 460.497 121.339C453.387 121.529 453.208 107.179 458.658 105.529Z" fill="#151515"/>
<path d="M518.687 106.609C521.447 109.369 520.557 121.259 514.657 120.229C505.097 118.569 511.407 99.3194 518.687 106.609Z" fill="#161616"/>
<path d="M258.788 504.169C263.268 502.839 268.268 504.759 272.578 504.969C289.228 505.809 305.798 506.479 321.838 511.679C330.658 514.529 352.068 523.269 344.048 535.459C334.888 549.379 296.448 555.139 280.628 555.969C277.508 556.129 265.818 556.499 263.728 555.799C262.958 555.539 262.508 555.029 262.268 554.269C259.588 538.829 258.628 522.959 256.178 507.409C256.198 505.939 257.448 504.579 258.808 504.169H258.788Z" fill="#0D0D0D"/>
<path d="M248.058 505.019L253.178 549.429C253.458 558.329 248.908 557.309 241.608 556.929C226.538 556.129 204.448 552.999 190.128 548.449C163.928 540.119 156.328 524.659 186.628 513.949C205.498 507.279 228.148 505.119 248.068 505.019H248.058Z" fill="#0E0E0E"/>
<path d="M217.107 190.279C210.077 211.469 178.487 208.169 173.147 187.289C187.477 189.799 202.707 193.259 217.107 190.279Z" fill="#F7F9E5"/>
<path d="M516.917 161.319L509.427 174.299C494.857 185.999 478.227 181.869 470.957 164.799C473.867 163.349 477.287 165.219 480.397 165.349C492.697 165.869 505.147 165.069 516.917 161.309V161.319Z" fill="#F7F9E5"/>
<path d="M266.128 551.889L261.098 507.979C267.138 510.089 274.208 508.53 280.618 508.93C295.718 509.88 322.058 513.609 334.738 521.759C355.208 534.929 320.418 545.199 310.098 547.469C295.978 550.579 280.568 551.919 266.128 551.879V551.889Z" fill="#EFAC4C"/>
<path d="M234.898 509.259C237.278 509.109 244.048 507.769 244.968 510.609L248.917 550.669L247.468 552.829C230.138 551.719 212.707 550.309 195.917 545.659C187.737 543.389 162.548 535.819 175.138 524.439C185.718 514.879 220.408 510.169 234.898 509.259Z" fill="#EFAC4C"/>
<path d="M282.797 522.179C288.217 521.069 305.047 522.259 300.577 530.959C298.587 534.839 287.467 534.379 283.557 533.969C274.547 533.019 273.267 524.139 282.807 522.179H282.797Z" fill="#EA5833"/>
<path d="M306.208 530.819C305.548 529.879 306.038 527.139 306.578 525.969C308.718 521.259 319.028 520.65 323.288 522.24C334.558 526.45 322.938 536.649 312.858 533.699C311.918 533.429 306.418 531.119 306.218 530.819H306.208Z" fill="#EA5833"/>
<path d="M209.887 522.219C215.207 521.429 232.687 521.239 229.947 530.269C228.967 533.499 220.577 535.689 217.477 535.879C205.107 536.599 194.237 524.559 209.897 522.229L209.887 522.219Z" fill="#EA5833"/>
</svg>
