<svg width="38" height="10" viewBox="0 0 38 10" fill="none" xmlns="http://www.w3.org/2000/svg">
<path d="M36.3663 8.904V8.112C36.1583 8.408 35.8943 8.636 35.5743 8.796C35.2543 8.948 34.8743 9.024 34.4343 9.024C33.7703 9.024 33.2343 8.844 32.8263 8.484C32.4183 8.124 32.2143 7.644 32.2143 7.044C32.2143 6.42 32.4623 5.944 32.9583 5.616C33.4543 5.288 34.1663 5.124 35.0943 5.124C35.2783 5.124 35.4543 5.132 35.6223 5.148C35.7903 5.156 35.9703 5.172 36.1623 5.196V4.812C36.1623 4.452 36.0663 4.172 35.8743 3.972C35.6823 3.772 35.4103 3.672 35.0583 3.672C34.6983 3.672 34.4143 3.772 34.2063 3.972C33.9983 4.172 33.8783 4.452 33.8463 4.812H32.3463C32.3783 4.316 32.5103 3.888 32.7423 3.528C32.9823 3.16 33.2983 2.876 33.6903 2.676C34.0903 2.476 34.5463 2.376 35.0583 2.376C35.8983 2.376 36.5503 2.596 37.0143 3.036C37.4863 3.476 37.7223 4.088 37.7223 4.872V8.904H36.3663ZM33.7863 6.996C33.7863 7.26 33.8743 7.472 34.0503 7.632C34.2343 7.792 34.4823 7.872 34.7943 7.872C35.2183 7.872 35.5503 7.764 35.7903 7.548C36.0383 7.324 36.1623 7.028 36.1623 6.66V6.204C35.9703 6.172 35.7983 6.152 35.6463 6.144C35.4943 6.128 35.3463 6.12 35.2023 6.12C34.7383 6.12 34.3863 6.192 34.1463 6.336C33.9063 6.48 33.7863 6.7 33.7863 6.996Z" fill="#4F378A"/>
<path d="M31.4718 7.284V8.736C31.2718 8.84 31.0678 8.912 30.8598 8.952C30.6598 9 30.4358 9.024 30.1878 9.024C29.7558 9.024 29.3758 8.944 29.0478 8.784C28.7278 8.616 28.4798 8.368 28.3038 8.04C28.1278 7.704 28.0398 7.3 28.0398 6.828V3.924H26.7438V2.496H28.0398V0.599998H29.6958V2.496H31.5318V3.924H29.6958V6.444C29.6958 6.812 29.7758 7.08 29.9358 7.248C30.1038 7.408 30.3358 7.488 30.6318 7.488C30.7918 7.488 30.9438 7.472 31.0878 7.44C31.2318 7.4 31.3598 7.348 31.4718 7.284Z" fill="#4F378A"/>
<path d="M26.0034 8.904H24.3354V2.496H26.0034V8.904ZM26.2674 1.008C26.2674 1.288 26.1634 1.524 25.9554 1.716C25.7554 1.9 25.4874 1.992 25.1514 1.992C24.8234 1.992 24.5554 1.9 24.3474 1.716C24.1474 1.524 24.0474 1.288 24.0474 1.008C24.0474 0.712 24.1474 0.472 24.3474 0.288C24.5554 0.096 24.8234 0 25.1514 0C25.4874 0 25.7554 0.096 25.9554 0.288C26.1634 0.472 26.2674 0.712 26.2674 1.008Z" fill="#4F378A"/>
<path d="M21.105 5.796V8.904H19.437V2.496H20.973V3.732C21.213 3.324 21.561 3.004 22.017 2.772C22.473 2.54 22.957 2.424 23.469 2.424V4.152C23.005 4.12 22.593 4.144 22.233 4.224C21.881 4.296 21.605 4.46 21.405 4.716C21.205 4.964 21.105 5.324 21.105 5.796Z" fill="#4F378A"/>
<path d="M16.6436 8.904V8.112C16.4356 8.408 16.1716 8.636 15.8516 8.796C15.5316 8.948 15.1516 9.024 14.7116 9.024C14.0476 9.024 13.5116 8.844 13.1036 8.484C12.6956 8.124 12.4916 7.644 12.4916 7.044C12.4916 6.42 12.7396 5.944 13.2356 5.616C13.7316 5.288 14.4436 5.124 15.3716 5.124C15.5556 5.124 15.7316 5.132 15.8996 5.148C16.0676 5.156 16.2476 5.172 16.4396 5.196V4.812C16.4396 4.452 16.3436 4.172 16.1516 3.972C15.9596 3.772 15.6876 3.672 15.3356 3.672C14.9756 3.672 14.6916 3.772 14.4836 3.972C14.2756 4.172 14.1556 4.452 14.1236 4.812H12.6236C12.6556 4.316 12.7876 3.888 13.0196 3.528C13.2596 3.16 13.5756 2.876 13.9676 2.676C14.3676 2.476 14.8236 2.376 15.3356 2.376C16.1756 2.376 16.8276 2.596 17.2916 3.036C17.7636 3.476 17.9996 4.088 17.9996 4.872V8.904H16.6436ZM14.0636 6.996C14.0636 7.26 14.1516 7.472 14.3276 7.632C14.5116 7.792 14.7596 7.872 15.0716 7.872C15.4956 7.872 15.8276 7.764 16.0676 7.548C16.3156 7.324 16.4396 7.028 16.4396 6.66V6.204C16.2476 6.172 16.0756 6.152 15.9236 6.144C15.7716 6.128 15.6236 6.12 15.4796 6.12C15.0156 6.12 14.6636 6.192 14.4236 6.336C14.1836 6.48 14.0636 6.7 14.0636 6.996Z" fill="#4F378A"/>
<path d="M11.3318 8.904H9.65185V0.287998H11.3318V8.904Z" fill="#4F378A"/>
<path d="M4.476 9.048C3.188 9.048 2.12 8.624 1.272 7.776C0.424 6.928 0 5.884 0 4.644C0 3.404 0.424 2.36 1.272 1.512C2.12 0.663998 3.188 0.239998 4.476 0.239998C5.428 0.239998 6.296 0.523998 7.08 1.092C7.872 1.652 8.384 2.392 8.616 3.312H6.54C6.356 2.92 6.076 2.62 5.7 2.412C5.324 2.196 4.916 2.088 4.476 2.088C3.708 2.088 3.088 2.332 2.616 2.82C2.152 3.308 1.92 3.916 1.92 4.644C1.92 5.372 2.152 5.98 2.616 6.468C3.088 6.956 3.708 7.2 4.476 7.2C4.916 7.2 5.324 7.096 5.7 6.888C6.076 6.672 6.356 6.368 6.54 5.976H8.616C8.384 6.896 7.872 7.64 7.08 8.208C6.296 8.768 5.428 9.048 4.476 9.048Z" fill="#4F378A"/>
</svg>
