<svg width="375" height="812" viewBox="0 0 375 812" fill="none" xmlns="http://www.w3.org/2000/svg">
<g clip-path="url(#clip0_57317_2982)">
<path d="M364.425 751.478C364.838 747.288 368.54 744.21 372.731 744.571L424.909 749.072C429.149 749.438 432.284 753.183 431.901 757.425L426.713 815C426.332 819.233 422.591 822.354 418.362 821.968L365.727 817.165C361.479 816.777 358.359 813.001 358.778 808.752L364.425 751.478ZM372.543 746.761C369.549 746.502 366.904 748.701 366.609 751.693L360.962 808.968C360.663 812.003 362.892 814.701 365.926 814.978L418.562 819.779C421.583 820.055 424.254 817.826 424.526 814.803L429.716 757.228C429.989 754.198 427.749 751.523 424.72 751.262L372.543 746.761ZM205.636 768.781C206.242 768.796 206.721 769.3 206.706 769.907L206.627 773.057C210.672 773.449 214.717 775.554 215.752 779.896C215.893 780.486 215.528 781.078 214.939 781.219C214.349 781.359 213.758 780.996 213.617 780.406C212.898 777.392 209.987 775.614 206.571 775.253L206.246 788.219C206.41 788.236 206.589 788.256 206.779 788.284C207.745 788.425 209.051 788.718 210.364 789.336C211.68 789.957 213.032 790.919 214.036 792.406C215.046 793.901 215.654 795.853 215.591 798.361C215.454 803.793 210.492 806.594 205.778 806.874L205.698 810.055C205.683 810.661 205.179 811.141 204.573 811.125C203.967 811.11 203.488 810.605 203.503 809.999L203.582 806.827C199.464 806.408 195.405 804.102 194.384 799.435C194.254 798.843 194.629 798.258 195.221 798.128C195.813 797.998 196.399 798.373 196.529 798.966C197.265 802.329 200.223 804.245 203.637 804.63L203.998 790.279C203.842 790.264 203.673 790.247 203.493 790.223C202.541 790.092 201.253 789.823 199.956 789.256C198.658 788.688 197.311 787.804 196.304 786.427C195.286 785.036 194.671 783.215 194.729 780.882C194.793 778.362 196.091 776.417 197.936 775.108C199.74 773.83 202.081 773.139 204.431 773.011L204.512 769.852C204.527 769.245 205.03 768.766 205.636 768.781ZM398.13 807.056L416.504 808.745C417.107 808.8 417.552 809.336 417.496 809.94C417.441 810.544 416.907 810.989 416.303 810.933L397.929 809.245C397.325 809.189 396.881 808.654 396.936 808.05C396.992 807.446 397.527 807.001 398.13 807.056ZM205.834 804.667C209.942 804.362 213.302 802.01 213.395 798.305C213.448 796.199 212.942 794.709 212.217 793.636C211.486 792.554 210.482 791.821 209.428 791.324C208.37 790.826 207.29 790.578 206.463 790.458C206.368 790.444 206.277 790.435 206.191 790.424L205.834 804.667ZM130.014 764.934C130.014 745.886 114.583 730.444 95.5493 730.444C76.5153 730.444 61.0857 745.886 61.0857 764.934C61.0858 783.983 76.5153 799.425 95.5493 799.425C114.583 799.425 130.014 783.983 130.014 764.934ZM370.55 793.709L396.049 795.61C396.653 795.655 397.107 796.182 397.062 796.787C397.016 797.392 396.49 797.846 395.886 797.801L370.387 795.9C369.783 795.854 369.329 795.328 369.374 794.723C369.419 794.118 369.945 793.664 370.55 793.709ZM105.223 774.863C105.223 772.474 104.605 770.787 103.743 769.578C102.875 768.361 101.706 767.554 100.493 767.019C99.2762 766.482 98.0434 766.233 97.1036 766.12C96.9418 766.1 96.7889 766.088 96.648 766.076V782.363C101.349 781.945 105.223 779.169 105.223 774.863ZM204.377 775.216C202.41 775.35 200.562 775.939 199.206 776.901C197.819 777.884 196.966 779.232 196.923 780.938C196.876 782.83 197.37 784.165 198.076 785.13C198.792 786.109 199.783 786.782 200.836 787.242C201.89 787.703 202.966 787.933 203.79 788.046C203.881 788.058 203.969 788.065 204.053 788.075L204.377 775.216ZM23.5178 748.422C23.5176 728.131 7.08076 711.681 -13.1957 711.681C-33.4722 711.681 -49.9101 728.131 -49.9103 748.422C-49.9103 768.714 -33.4723 785.164 -13.1957 785.164C7.08089 785.164 23.5178 768.714 23.5178 748.422ZM372.807 782.287L402.431 784.728C403.035 784.778 403.485 785.308 403.435 785.912C403.386 786.517 402.855 786.967 402.251 786.917L372.627 784.477C372.023 784.427 371.574 783.896 371.624 783.291C371.674 782.687 372.203 782.238 372.807 782.287ZM408.03 773.468L419.279 774.119C419.884 774.154 420.346 774.674 420.311 775.28C420.276 775.885 419.757 776.348 419.152 776.313L407.902 775.661C407.297 775.626 406.835 775.107 406.87 774.501C406.905 773.896 407.425 773.433 408.03 773.468ZM376.921 771.013L400.92 772.718C401.524 772.761 401.98 773.287 401.937 773.892C401.894 774.497 401.369 774.953 400.764 774.91L376.765 773.203C376.161 773.16 375.705 772.635 375.748 772.03C375.791 771.425 376.316 770.97 376.921 771.013ZM-2.84164 758.979C-2.8417 756.426 -3.5017 754.619 -4.42708 753.321C-5.35886 752.013 -6.61357 751.148 -7.91202 750.575C-9.21408 750.001 -10.5316 749.734 -11.5352 749.613C-11.7377 749.589 -11.9266 749.572 -12.098 749.558V767.032C-7.04876 766.608 -2.84164 763.634 -2.84164 758.979ZM301.473 716.014L313.6 716.841C315.419 716.965 316.791 718.545 316.66 720.365L313.333 766.73L317.873 767.091C318.477 767.138 318.928 767.667 318.88 768.272C318.832 768.876 318.303 769.328 317.699 769.28L244.391 763.464C243.787 763.416 243.335 762.886 243.383 762.281C243.431 761.677 243.959 761.226 244.563 761.274L247.953 761.542L249.239 741.782C249.358 739.968 250.92 738.593 252.733 738.707L263.182 739.369C264.988 739.484 266.364 741.036 266.262 742.844L265.132 762.906L270.277 763.313L272.653 732C272.79 730.195 274.358 728.838 276.164 728.962L288.108 729.787C289.923 729.913 291.293 731.488 291.166 733.305L288.958 764.796L294.462 765.231L297.965 719.053C298.102 717.248 299.668 715.891 301.473 716.014ZM301.324 718.206C300.722 718.165 300.2 718.618 300.154 719.22L296.652 765.405L311.145 766.556L314.471 720.209C314.515 719.602 314.057 719.075 313.451 719.034L301.324 718.206ZM276.013 731.154C275.411 731.113 274.888 731.565 274.842 732.167L272.466 763.487L286.77 764.622L288.976 733.152C289.018 732.546 288.562 732.021 287.956 731.979L276.013 731.154ZM252.595 740.9C251.99 740.862 251.469 741.32 251.429 741.925L250.142 761.715L262.942 762.732L264.07 742.721C264.104 742.118 263.645 741.6 263.043 741.562L252.595 740.9ZM377.664 754.776L416.662 757.333C417.267 757.372 417.725 757.895 417.686 758.5C417.646 759.105 417.125 759.564 416.52 759.524L377.521 756.969C376.916 756.929 376.459 756.406 376.498 755.801C376.538 755.195 377.06 754.737 377.664 754.776ZM150.404 658.794C154.215 638.664 173.612 625.438 193.727 629.252C205.238 631.435 214.489 638.726 219.583 648.332L223.518 630.888C223.651 630.297 224.238 629.925 224.83 630.059C225.421 630.193 225.792 630.78 225.658 631.372L221.294 650.725C221.205 651.121 221.149 651.518 221.125 651.91C221.121 651.969 221.112 652.025 221.099 652.081C221.106 652.178 221.111 652.273 221.111 652.366C221.112 653.924 221.609 655.42 222.488 656.655C222.541 656.73 222.592 656.811 222.643 656.893C222.685 656.931 222.725 656.971 222.762 657.016C223.666 658.136 224.904 659.002 226.378 659.446C227.044 659.648 227.428 660.345 227.241 661.016L214.677 706.04C214.565 706.442 214.791 706.86 215.186 706.988L216.875 707.401L218.626 707.725L218.654 707.729L218.683 707.737C219.094 707.835 219.509 707.586 219.616 707.177L231.421 661.948L231.46 661.825C231.667 661.265 232.238 660.922 232.83 661.003L232.956 661.026L233.311 661.102C236.971 661.793 240.604 659.644 241.737 656.053L247.705 637.135C247.888 636.556 248.505 636.236 249.083 636.418C249.661 636.601 249.981 637.218 249.799 637.797L243.83 656.715C242.405 661.232 237.928 663.989 233.328 663.33L221.739 707.731C221.335 709.279 219.783 710.224 218.229 709.883V709.885L216.438 709.555L216.407 709.55L216.376 709.542L214.624 709.113L214.596 709.106L214.568 709.097C213.019 708.63 212.127 707.009 212.562 705.45L218.085 685.653C210.172 698.06 195.258 705.057 179.924 702.15C159.809 698.336 146.592 678.924 150.404 658.794ZM431.119 675.059C431.119 658.602 417.787 645.26 401.342 645.26C384.897 645.26 371.565 658.602 371.565 675.059C371.565 691.517 384.897 704.858 401.342 704.858C417.787 704.858 431.119 691.517 431.119 675.059ZM193.317 631.411C174.394 627.822 156.146 640.266 152.56 659.204C148.975 678.142 161.409 696.403 180.333 699.991C199.256 703.58 217.504 691.136 221.09 672.198C221.979 667.499 221.883 662.845 220.947 658.446C220.915 658.296 220.837 658.123 220.699 657.929C219.562 656.331 218.917 654.393 218.916 652.367C218.916 652.128 218.879 651.94 218.817 651.799C214.365 641.564 205.098 633.644 193.317 631.411ZM107.27 630.516C108.773 630.475 109.888 631.408 110.429 632.527C110.964 633.635 111.016 635.063 110.312 636.264C108.19 639.884 108.126 643.194 109.035 646.717C109.496 648.504 110.207 650.341 111.041 652.307C111.862 654.241 112.829 656.361 113.722 658.558C115.529 663.006 117.164 668.074 117.328 674.146C117.493 680.225 116.182 687.24 112.206 695.599C111.846 696.357 111.19 696.97 110.395 697.268L106.108 698.875C104.899 699.328 103.537 699.032 102.624 698.118L101.379 696.872C101.027 696.519 100.482 696.448 100.051 696.698L96.5397 698.737C95.2782 699.47 93.6851 699.285 92.625 698.282L91.374 697.098C91.0206 696.764 90.4889 696.703 90.0683 696.947L86.3722 699.093C85.2148 699.766 83.7654 699.671 82.7061 698.852L80.6212 697.24C80.2682 696.967 79.7849 696.935 79.3991 697.159L75.6258 699.351C74.4194 700.051 72.9023 699.915 71.8397 699.011L70.2682 697.674C69.8918 697.354 69.3484 697.324 68.94 697.602L66.5688 699.219C65.1635 700.177 63.2603 699.906 62.177 698.595L61.0439 697.223C60.765 696.885 60.2865 696.79 59.9002 696.996C58.543 697.721 57.1123 697.303 56.2105 696.453C55.3153 695.61 54.8044 694.223 55.3229 692.825C61.0097 677.493 56.9459 667.193 53.2176 658.444C51.3652 654.098 49.5057 649.958 49.1409 645.831C48.7658 641.586 49.9639 637.42 53.9572 632.976C54.5475 632.319 55.403 631.932 56.2759 631.908L107.27 630.516ZM56.3348 634.104C56.0541 634.112 55.7713 634.244 55.5898 634.445C51.965 638.48 51.0111 642.055 51.3277 645.638C51.6548 649.337 53.331 653.11 55.2371 657.583C59.0259 666.474 63.3688 677.444 57.38 693.59C57.2166 694.031 57.3569 694.515 57.7155 694.853C58.0677 695.184 58.4944 695.257 58.8668 695.058C60.1741 694.36 61.7915 694.68 62.7355 695.823L63.8686 697.195C64.2296 697.632 64.8644 697.722 65.3329 697.403L67.704 695.787C68.9292 694.952 70.5613 695.039 71.6907 696L73.2621 697.337C73.6164 697.639 74.1218 697.683 74.5238 697.45L78.2971 695.259C79.4545 694.587 80.903 694.682 81.9622 695.501L84.0482 697.113C84.4012 697.386 84.8845 697.418 85.2702 697.194L88.9664 695.047C90.228 694.314 91.821 694.499 92.8811 695.502L94.1332 696.685C94.4866 697.019 95.0173 697.082 95.4378 696.837L98.9495 694.798C100.241 694.048 101.876 694.261 102.932 695.318L104.176 696.565C104.481 696.87 104.935 696.968 105.338 696.817L109.625 695.21C109.878 695.115 110.104 694.907 110.224 694.654C114.069 686.57 115.288 679.898 115.134 674.206C114.98 668.508 113.449 663.719 111.689 659.386C110.798 657.193 109.88 655.191 109.021 653.166C108.175 651.174 107.412 649.215 106.909 647.265C105.89 643.314 105.94 639.382 108.419 635.152C108.708 634.659 108.708 634.014 108.452 633.484C108.203 632.967 107.789 632.7 107.33 632.712L56.3348 634.104ZM409.595 683.679C409.595 681.631 409.066 680.198 408.337 679.175C407.603 678.144 406.611 677.458 405.575 677.001C404.535 676.542 403.48 676.329 402.673 676.232C402.593 676.222 402.514 676.216 402.44 676.208V690.032C406.414 689.625 409.595 687.261 409.595 683.679ZM160.265 660.665C163.044 645.985 177.189 636.339 191.858 639.121C206.527 641.902 216.165 656.057 213.386 670.737C210.606 685.417 196.462 695.063 181.793 692.281C167.124 689.5 157.485 675.345 160.265 660.665ZM191.449 641.279C177.971 638.723 164.975 647.586 162.421 661.074C159.868 674.561 168.723 687.567 182.201 690.123C195.679 692.679 208.675 683.816 211.229 670.328C213.783 656.84 204.927 643.835 191.449 641.279ZM104.005 683.851C104.611 683.834 105.115 684.312 105.132 684.918C105.148 685.524 104.671 686.03 104.065 686.047L93.2521 686.341C92.6462 686.358 92.142 685.879 92.1254 685.273C92.109 684.667 92.5872 684.162 93.1931 684.146L104.005 683.851ZM-64.0699 599.397C-63.6177 595.526 -59.9259 592.891 -56.1213 593.723L16.831 609.689C20.1285 610.411 22.3474 613.51 21.9689 616.867L15.402 675.05C14.967 678.904 11.3162 681.551 7.52098 680.764L-65.7496 665.567C-69.0915 664.874 -71.351 661.741 -70.9551 658.349L-64.0699 599.397ZM-56.5908 595.87C-59.127 595.315 -61.5878 597.071 -61.8895 599.651L-68.7747 658.603C-69.0388 660.865 -67.5326 662.953 -65.3047 663.415L7.96584 678.613C10.496 679.138 12.9304 677.373 13.2206 674.804L19.7874 616.621C20.04 614.384 18.5609 612.316 16.3625 611.835L-56.5908 595.87ZM89.214 675.318C89.82 675.301 90.3251 675.78 90.3417 676.386C90.3579 676.992 89.8799 677.497 89.274 677.514L68.0438 678.093C67.438 678.11 66.9329 677.632 66.9161 677.026C66.8996 676.419 67.3778 675.914 67.9838 675.897L89.214 675.318ZM263.567 630.628C266.48 608.018 287.155 592.052 309.747 594.967C332.34 597.881 348.294 618.573 345.381 641.182C342.469 663.792 321.794 679.758 299.201 676.843C276.609 673.929 260.655 653.237 263.567 630.628ZM309.466 597.147C288.077 594.387 268.502 609.503 265.744 630.909C262.987 652.315 278.092 671.905 299.482 674.664C320.872 677.424 340.447 662.307 343.204 640.901C345.961 619.495 330.856 599.906 309.466 597.147ZM-1.3334 673.556C-0.0358429 668.306 5.04229 664.756 10.5889 665.366C11.1914 665.432 11.6272 665.974 11.5612 666.577C11.495 667.18 10.9525 667.615 10.3499 667.549C5.87554 667.057 1.82607 669.922 0.797653 674.084C0.65213 674.673 0.0569305 675.032 -0.531578 674.887C-1.12009 674.741 -1.47892 674.145 -1.3334 673.556ZM103.467 664.131C104.073 664.114 104.578 664.592 104.594 665.198C104.611 665.805 104.133 666.31 103.527 666.327L66.9633 667.325C66.3575 667.341 65.8524 666.863 65.8356 666.257C65.8191 665.651 66.2973 665.145 66.9033 665.129L103.467 664.131ZM274.676 632.062C276.797 615.593 291.858 603.962 308.315 606.085C324.772 608.208 336.394 623.28 334.273 639.749C332.151 656.218 317.09 667.848 300.633 665.725C284.177 663.602 272.555 648.531 274.676 632.062ZM223.548 660.573C223.744 661.981 223.858 663.41 223.89 664.853L224.895 661.248C224.423 661.057 223.974 660.83 223.548 660.573ZM-51.2782 632.062C-48.2272 617.33 -33.821 607.862 -19.1001 610.915C-4.37923 613.969 5.08208 628.386 2.03148 643.118C-1.01945 657.85 -15.4268 667.317 -30.1477 664.264C-44.8686 661.211 -54.3289 646.794 -51.2782 632.062ZM308.034 608.265C292.78 606.297 278.821 617.076 276.854 632.342C274.888 647.608 285.66 661.578 300.914 663.546C316.168 665.514 330.128 654.734 332.094 639.468C334.061 624.202 323.289 610.232 308.034 608.265ZM-19.5449 613.066C-33.0786 610.259 -46.3239 618.963 -49.1289 632.507C-51.9338 646.051 -43.2364 659.306 -29.7028 662.113C-16.1691 664.92 -2.92387 656.216 -0.118874 642.672C2.686 629.129 -6.01125 615.873 -19.5449 613.066ZM-65.1075 650.767C-64.9761 650.174 -64.3904 649.801 -63.7986 649.932C-58.351 651.142 -54.6844 656.14 -55.1458 661.53C-55.1976 662.134 -55.7296 662.582 -56.3335 662.53C-56.9375 662.479 -57.3854 661.946 -57.3337 661.342C-56.968 657.07 -59.8804 653.053 -64.2746 652.076C-64.8661 651.945 -65.2387 651.359 -65.1075 650.767ZM99.851 654.176C100.457 654.159 100.962 654.638 100.979 655.244C100.995 655.851 100.517 656.355 99.9111 656.372L65.3136 657.317C64.7076 657.333 64.2024 656.855 64.1859 656.248C64.1694 655.642 64.6476 655.137 65.2535 655.121L99.851 654.176ZM306.916 617.073C307.517 617.151 307.942 617.702 307.865 618.304L307.496 621.161C311.216 621.934 314.771 624.292 315.319 628.45C315.398 629.051 314.976 629.603 314.375 629.682C313.774 629.762 313.223 629.339 313.143 628.737C312.773 625.929 310.306 624.017 307.215 623.341L305.683 635.232C305.817 635.261 305.96 635.291 306.111 635.329C307 635.555 308.194 635.956 309.363 636.663C310.537 637.372 311.713 638.406 312.512 639.899C313.316 641.403 313.694 643.292 313.393 645.632C312.74 650.702 307.85 652.842 303.437 652.672L303.066 655.56C302.988 656.161 302.437 656.586 301.836 656.508C301.235 656.43 300.81 655.88 300.887 655.279L301.257 652.399C297.469 651.593 293.921 649.044 293.418 644.588C293.35 643.986 293.784 643.442 294.386 643.374C294.988 643.306 295.531 643.739 295.599 644.342C295.953 647.476 298.454 649.519 301.539 650.217L303.236 637.044C303.11 637.017 302.975 636.99 302.833 636.956C301.956 636.742 300.777 636.365 299.617 635.708C298.456 635.051 297.277 634.091 296.465 632.699C295.643 631.292 295.243 629.522 295.523 627.343C295.828 624.978 297.241 623.275 299.099 622.227C300.897 621.213 303.128 620.792 305.317 620.889L305.687 618.023C305.764 617.421 306.315 616.996 306.916 617.073ZM-22.4585 621.724C-22.3355 621.129 -21.754 620.748 -21.1604 620.871C-20.5671 620.994 -20.1863 621.575 -20.3092 622.169L-20.8013 624.54C-17.5942 625.5 -14.6378 627.83 -14.4328 631.554C-14.3994 632.16 -14.8631 632.678 -15.4683 632.712C-16.0735 632.745 -16.5914 632.281 -16.6249 631.676C-16.7557 629.3 -18.6754 627.505 -21.2472 626.694L-23.3375 636.786C-23.2541 636.812 -23.1661 636.838 -23.076 636.868C-22.3015 637.128 -21.2671 637.566 -20.2728 638.275C-19.275 638.987 -18.2922 639.991 -17.6786 641.384C-17.0607 642.787 -16.8534 644.502 -17.2799 646.561C-18.2043 651.025 -22.6559 652.601 -26.5277 652.197L-27.024 654.594C-27.147 655.188 -27.7276 655.57 -28.3211 655.447C-28.9146 655.324 -29.2962 654.743 -29.1733 654.149L-28.6791 651.759C-31.9455 650.76 -34.8809 648.261 -35.0251 644.282C-35.0469 643.676 -34.5738 643.167 -33.9681 643.145C-33.3624 643.123 -32.8528 643.596 -32.8308 644.202C-32.7345 646.86 -30.794 648.771 -28.2321 649.604L-25.9113 638.394C-25.9871 638.371 -26.0669 638.35 -26.1482 638.324C-26.9122 638.074 -27.9353 637.659 -28.9235 636.995C-29.9127 636.331 -30.9031 635.392 -31.5369 634.088C-32.1785 632.768 -32.4142 631.156 -32.0161 629.234C-31.5801 627.129 -30.1922 625.696 -28.4583 624.885C-26.8183 624.118 -24.8511 623.891 -22.9516 624.102L-22.4585 621.724ZM238.104 634.525C238.262 633.939 238.865 633.593 239.45 633.751C240.035 633.91 240.382 634.514 240.223 635.1L236.545 648.679C236.379 649.294 236.741 649.926 237.356 650.093C237.97 650.259 238.602 649.896 238.768 649.282L242.447 635.703C242.606 635.117 243.209 634.772 243.794 634.93C244.379 635.089 244.724 635.692 244.566 636.278L240.888 649.857C240.404 651.643 238.565 652.698 236.781 652.214C234.997 651.73 233.942 649.89 234.426 648.104L238.104 634.525ZM303.72 650.482C307.52 650.565 310.783 648.714 311.216 645.351C311.466 643.41 311.139 641.989 310.576 640.936C310.007 639.873 309.154 639.102 308.229 638.543C307.301 637.982 306.326 637.651 305.573 637.46C305.514 637.445 305.457 637.433 305.401 637.42L303.72 650.482ZM-26.0796 650.033C-22.8362 650.305 -20.0084 648.907 -19.4302 646.116C-19.0852 644.45 -19.2753 643.207 -19.6875 642.271C-20.1043 641.325 -20.7856 640.608 -21.5473 640.065C-22.3125 639.519 -23.1333 639.166 -23.7749 638.95C-23.7781 638.949 -23.7813 638.948 -23.7845 638.947L-26.0796 650.033ZM228.815 632.039C228.955 631.449 229.546 631.083 230.136 631.223C230.726 631.362 231.091 631.954 230.952 632.544L227.72 646.237C227.573 646.857 227.957 647.478 228.576 647.624C229.196 647.771 229.816 647.387 229.962 646.767L233.194 633.074C233.334 632.484 233.925 632.119 234.515 632.258C235.105 632.398 235.47 632.989 235.331 633.58L232.099 647.273C231.674 649.073 229.871 650.188 228.071 649.762C226.272 649.337 225.158 647.533 225.583 645.732L228.815 632.039ZM96.4176 643.658C97.0232 643.642 97.5274 644.12 97.5442 644.726C97.5607 645.332 97.0825 645.838 96.4765 645.854L62.0752 646.793C61.4694 646.809 60.9653 646.332 60.9485 645.726C60.932 645.119 61.4093 644.614 62.0151 644.597L96.4176 643.658ZM-23.3997 626.263C-24.9132 626.126 -26.3794 626.337 -27.5289 626.875C-28.7537 627.448 -29.5948 628.371 -29.8658 629.679C-30.1744 631.17 -29.9742 632.282 -29.5635 633.127C-29.145 633.988 -28.4665 634.655 -27.6993 635.171C-26.9311 635.687 -26.1092 636.026 -25.4675 636.235C-25.4664 636.235 -25.4654 636.236 -25.4643 636.236L-23.3997 626.263ZM305.035 623.077C303.23 623.026 301.498 623.395 300.177 624.141C298.808 624.913 297.902 626.067 297.702 627.624C297.477 629.366 297.806 630.639 298.361 631.59C298.925 632.556 299.771 633.27 300.699 633.795C301.628 634.322 302.601 634.638 303.353 634.821C303.409 634.835 303.465 634.844 303.518 634.856L305.035 623.077ZM6.45116 611.94C7.05711 611.943 7.54607 612.436 7.5435 613.043C7.52368 617.33 10.7504 621.099 15.2091 621.717C15.8096 621.8 16.2291 622.355 16.146 622.956C16.0628 623.557 15.5083 623.977 14.9079 623.894C9.38033 623.127 5.32317 618.442 5.34812 613.033C5.35092 612.426 5.84494 611.937 6.45116 611.94ZM-49.8021 600.937C-49.6095 600.362 -48.9875 600.051 -48.4128 600.244C-47.838 600.436 -47.5278 601.06 -47.7203 601.635C-49.4372 606.764 -54.7859 609.891 -60.2655 608.835C-60.8608 608.721 -61.2505 608.145 -61.1359 607.549C-61.0211 606.954 -60.4458 606.563 -59.8506 606.678C-55.4306 607.53 -51.163 605.002 -49.8021 600.937ZM407.002 535.796C408.801 535.503 410.497 536.729 410.784 538.531L418.086 584.435L422.588 583.753C423.187 583.662 423.747 584.075 423.838 584.675C423.929 585.274 423.516 585.834 422.917 585.925L350.208 596.955C349.609 597.045 349.049 596.633 348.958 596.033C348.868 595.433 349.28 594.873 349.879 594.782L353.241 594.272L350 574.738C349.703 572.944 350.913 571.25 352.704 570.949L363.029 569.213C364.814 568.913 366.506 570.111 366.818 571.895L370.279 591.687L375.381 590.914L370.577 559.881C370.3 558.091 371.517 556.413 373.304 556.123L385.122 554.206C386.919 553.915 388.611 555.138 388.9 556.936L393.91 588.102L399.369 587.275L392.28 541.509C392.003 539.72 393.219 538.043 395.004 537.752L407.002 535.796ZM149.635 561.978C149.635 543.932 135.016 529.304 116.984 529.304C98.9521 529.304 84.3347 543.933 84.3344 561.978C84.3344 580.024 98.952 594.653 116.984 594.653C135.017 594.653 149.635 580.024 149.635 561.978ZM364.655 572.273C364.551 571.679 363.987 571.28 363.392 571.38L353.067 573.115C352.47 573.215 352.067 573.78 352.166 574.378L355.412 593.942L368.108 592.017L364.655 572.273ZM386.732 557.285C386.636 556.685 386.071 556.278 385.473 556.375L373.655 558.292C373.06 558.389 372.654 558.949 372.746 559.545L377.552 590.584L391.739 588.431L386.732 557.285ZM408.615 538.876C408.52 538.276 407.955 537.867 407.356 537.964L395.358 539.92C394.763 540.017 394.357 540.577 394.449 541.173L401.54 586.946L415.915 584.765L408.615 538.876ZM188.935 515.625C189.348 511.436 193.051 508.357 197.242 508.719L249.419 513.22C253.659 513.586 256.795 517.331 256.413 521.572L251.225 579.148C250.843 583.38 247.103 586.501 242.874 586.115L190.238 581.313C185.989 580.925 182.87 577.148 183.289 572.9L188.935 515.625ZM126.108 571.401C126.108 569.144 125.525 567.555 124.715 566.418C123.899 565.273 122.797 564.513 121.653 564.008C120.504 563.501 119.34 563.266 118.452 563.159C118.322 563.144 118.198 563.133 118.082 563.123V578.457C122.502 578.043 126.108 575.427 126.108 571.401ZM197.053 510.908C194.06 510.65 191.415 512.848 191.12 515.841L185.474 573.116C185.175 576.15 187.402 578.848 190.437 579.125L243.073 583.927C246.094 584.202 248.765 581.973 249.038 578.95L254.226 521.375C254.499 518.346 252.26 515.671 249.232 515.409L197.053 510.908ZM38.2927 499.882C38.391 499.284 38.9562 498.878 39.5544 498.977C40.1523 499.076 40.5574 499.64 40.4591 500.238L37.2432 519.815C37.1774 520.216 37.1454 520.615 37.1446 521.008C37.1445 521.067 37.1374 521.124 37.1285 521.18C37.1407 521.276 37.1519 521.371 37.1575 521.464C37.2504 523.02 37.8344 524.483 38.7847 525.664C38.843 525.736 38.8983 525.814 38.9541 525.894C38.9979 525.929 39.0404 525.967 39.0795 526.009C40.0484 527.073 41.3347 527.864 42.8324 528.22C43.5097 528.382 43.9327 529.057 43.7854 529.737L33.8998 575.425C33.8116 575.834 34.0623 576.237 34.4647 576.341L36.1648 576.652L37.9421 576.873L37.97 576.877L37.9989 576.882C38.4154 576.956 38.8147 576.683 38.8972 576.267L48.0143 530.421L48.0464 530.295C48.2207 529.724 48.7699 529.349 49.3649 529.394L49.4936 529.41L49.8516 529.465C53.5459 529.939 57.0462 527.578 57.9653 523.927L62.8073 504.689C62.9554 504.101 63.5519 503.744 64.1398 503.892C64.7276 504.04 65.0843 504.637 64.9362 505.226L60.0942 524.464C58.9379 529.057 54.6312 532.074 50.0006 531.688L41.0508 576.696C40.7388 578.266 39.2443 579.3 37.672 579.051V579.053L35.8657 578.83L35.8347 578.826L35.8036 578.821L34.0284 578.495L33.9995 578.49L33.9716 578.484C32.3976 578.109 31.4124 576.542 31.7548 574.96L36.1016 554.87C28.9346 567.725 14.4584 575.591 -1.02146 573.594C-21.3263 570.975 -35.6645 552.379 -33.0473 532.059C-30.4299 511.739 -11.848 497.389 8.4568 500.008C20.0765 501.507 29.7416 508.239 35.393 517.528L38.2927 499.882ZM222.641 571.205L241.015 572.893C241.619 572.949 242.063 573.483 242.008 574.087C241.952 574.692 241.417 575.136 240.814 575.081L222.44 573.392C221.837 573.337 221.393 572.802 221.448 572.198C221.503 571.594 222.037 571.15 222.641 571.205ZM8.17595 502.188C-10.9262 499.724 -28.4076 513.222 -30.8702 532.339C-33.3326 551.456 -19.8431 568.951 -0.740608 571.415C18.3617 573.879 35.8438 560.38 38.3066 541.263C38.9173 536.52 38.546 531.879 37.3526 527.543C37.3117 527.395 37.2231 527.228 37.0738 527.043C35.8444 525.515 35.0872 523.617 34.9664 521.595C34.9521 521.356 34.9043 521.172 34.8345 521.034C29.7867 511.08 20.0683 503.722 8.17595 502.188ZM-23.0942 533.343C-21.1854 518.524 -7.6338 508.059 7.17367 509.969C21.9812 511.88 32.4383 525.441 30.5295 540.26C28.6207 555.079 15.0692 565.544 0.261673 563.633C-14.5458 561.723 -25.0027 548.161 -23.0942 533.343ZM195.061 557.857L220.56 559.758C221.164 559.803 221.618 560.33 221.573 560.934C221.528 561.539 221.001 561.993 220.396 561.948L194.897 560.047C194.293 560.002 193.839 559.475 193.884 558.87C193.929 558.265 194.457 557.811 195.061 557.857ZM6.89281 512.148C-6.71206 510.393 -19.1622 520.009 -20.916 533.624C-22.6695 547.239 -13.0624 559.698 0.542526 561.454C14.1475 563.209 26.5986 553.594 28.3524 539.979C30.106 526.364 20.4978 513.903 6.89281 512.148ZM197.32 546.435L226.944 548.875C227.548 548.925 227.997 549.456 227.947 550.061C227.897 550.665 227.367 551.114 226.764 551.065L197.14 548.624C196.536 548.575 196.086 548.044 196.136 547.439C196.186 546.835 196.716 546.385 197.32 546.435ZM360.748 513.57C360.748 495.524 346.129 480.894 328.097 480.894C310.065 480.895 295.447 495.524 295.447 513.57C295.447 531.615 310.065 546.245 328.097 546.245C346.129 546.245 360.748 531.616 360.748 513.57ZM232.54 537.616L243.79 538.267C244.395 538.302 244.857 538.822 244.822 539.428C244.787 540.033 244.268 540.496 243.663 540.461L232.414 539.809C231.809 539.774 231.347 539.254 231.382 538.649C231.417 538.043 231.935 537.581 232.54 537.616ZM201.432 535.16L225.431 536.866C226.036 536.909 226.491 537.435 226.448 538.039C226.405 538.644 225.88 539.1 225.276 539.057L201.277 537.352C200.672 537.309 200.217 536.783 200.259 536.178C200.302 535.573 200.827 535.117 201.432 535.16ZM337.22 522.993C337.22 520.736 336.638 519.146 335.828 518.01C335.012 516.864 333.91 516.104 332.765 515.599C331.617 515.093 330.453 514.857 329.565 514.75C329.434 514.734 329.311 514.725 329.195 514.714V530.048C333.615 529.634 337.22 527.019 337.22 522.993ZM40.0732 529.512C40.3522 530.907 40.5515 532.326 40.6681 533.764L41.4592 530.107C40.9765 529.944 40.5138 529.744 40.0732 529.512ZM202.176 518.924L241.174 521.48C241.779 521.52 242.237 522.043 242.198 522.648C242.158 523.254 241.635 523.711 241.03 523.672L202.032 521.117C201.427 521.077 200.969 520.554 201.009 519.948C201.048 519.343 201.571 518.884 202.176 518.924ZM53.0686 502.65C53.1926 502.056 53.7735 501.676 54.3667 501.799C54.9602 501.923 55.3416 502.506 55.2178 503.099L52.3471 516.872C52.2172 517.495 52.6162 518.106 53.239 518.236C53.8619 518.366 54.4726 517.966 54.6025 517.343L57.4732 503.57C57.597 502.977 58.1781 502.595 58.7714 502.719C59.3649 502.843 59.7463 503.425 59.6225 504.019L56.7518 517.791C56.3743 519.602 54.6008 520.765 52.7909 520.387C50.9811 520.009 49.8203 518.234 50.1978 516.423L53.0686 502.65ZM43.6492 500.719C43.7535 500.121 44.3223 499.721 44.9195 499.825C45.5165 499.93 45.9156 500.499 45.8114 501.097L43.3931 514.956C43.2836 515.583 43.7031 516.181 44.3299 516.29C44.9568 516.4 45.554 515.98 45.6635 515.353L48.0818 501.494C48.1861 500.896 48.7549 500.496 49.3521 500.6C49.9491 500.704 50.3482 501.274 50.2439 501.871L47.8256 515.731C47.5074 517.554 45.7736 518.773 43.9526 518.455C42.1313 518.137 40.9129 516.401 41.2309 514.578L43.6492 500.719ZM9.64454 428.511C9.64436 412.054 -3.68819 398.712 -20.1334 398.712C-36.5784 398.712 -49.9102 412.054 -49.9103 428.511C-49.9103 444.969 -36.5786 458.31 -20.1334 458.311C-3.68808 458.311 9.64454 444.969 9.64454 428.511ZM371.775 381.2L415.986 382.9C417.429 382.955 418.47 383.889 418.957 384.994C419.439 386.086 419.44 387.461 418.738 388.608C416.579 392.132 416.276 395.477 416.836 399.082C417.411 402.79 418.855 406.596 420.183 411.216C421.491 415.768 422.615 420.917 422.394 426.977C422.173 433.042 420.608 439.964 416.613 448.083C416.237 448.846 415.562 449.453 414.751 449.737L411.325 450.934C409.982 451.404 408.489 450.957 407.625 449.826L406.969 448.968C406.635 448.531 406.03 448.408 405.553 448.68L403.027 450.122C401.626 450.921 399.853 450.588 398.838 449.335L398.226 448.579C397.887 448.162 397.297 448.051 396.83 448.317L394.1 449.875C392.807 450.613 391.179 450.391 390.13 449.334L388.852 448.044C388.503 447.692 387.961 447.618 387.53 447.864L384.715 449.47C383.371 450.237 381.674 449.964 380.638 448.814L379.797 447.879C379.43 447.472 378.82 447.399 378.367 447.705L376.877 448.713C375.335 449.755 373.237 449.313 372.246 447.736L371.561 446.647C371.375 446.353 370.995 446.25 370.686 446.41C369.43 447.065 368.12 446.665 367.309 445.875C366.505 445.091 366.066 443.808 366.585 442.536C372.77 427.361 369.909 416.687 367.184 407.666C365.828 403.178 364.442 398.929 364.347 394.798C364.251 390.57 365.496 386.49 369.24 382.274C369.881 381.552 370.829 381.164 371.775 381.2ZM-11.8804 437.132C-11.8804 435.084 -12.4083 433.65 -13.1367 432.628C-13.8715 431.597 -14.8635 430.911 -15.8992 430.454C-16.9388 429.996 -17.9942 429.781 -18.801 429.684C-18.8815 429.674 -18.96 429.669 -19.0347 429.661V443.484C-15.061 443.077 -11.8806 440.714 -11.8804 437.132ZM371.691 383.396C371.382 383.384 371.074 383.516 370.881 383.733C367.501 387.54 366.459 391.083 366.543 394.747C366.629 398.508 367.892 402.421 369.285 407.031C372.057 416.208 375.09 427.485 368.617 443.365C368.487 443.684 368.575 444.042 368.841 444.301C369.101 444.554 369.405 444.601 369.672 444.462C370.995 443.773 372.625 444.215 373.419 445.478L374.103 446.567C374.434 447.092 375.133 447.24 375.647 446.892L377.137 445.885C378.497 444.965 380.326 445.188 381.426 446.408L382.268 447.343C382.614 447.726 383.18 447.817 383.628 447.561L386.442 445.956C387.735 445.218 389.363 445.439 390.411 446.496L391.689 447.786C392.038 448.138 392.581 448.212 393.012 447.966L395.742 446.408C397.143 445.609 398.916 445.943 399.931 447.196L400.543 447.951C400.882 448.369 401.473 448.48 401.94 448.214L404.466 446.772C405.897 445.956 407.71 446.323 408.712 447.632L409.368 448.49C409.656 448.867 410.154 449.017 410.601 448.861L414.027 447.662C414.286 447.572 414.518 447.367 414.643 447.113C418.514 439.245 419.992 432.625 420.201 426.897C420.41 421.164 419.351 416.268 418.073 411.823C416.815 407.448 415.27 403.307 414.666 399.419C414.047 395.428 414.374 391.528 416.866 387.46C417.153 386.991 417.17 386.384 416.949 385.881C416.732 385.389 416.349 385.112 415.901 385.094L371.691 383.396ZM410.018 435.935C410.624 435.958 411.096 436.468 411.073 437.074C411.05 437.68 410.54 438.153 409.935 438.13L400.477 437.766C399.871 437.743 399.399 437.233 399.422 436.627C399.445 436.021 399.955 435.548 400.56 435.571L410.018 435.935ZM397.636 426.519C398.242 426.543 398.714 427.053 398.691 427.66C398.667 428.266 398.157 428.738 397.551 428.715L378.98 428.001C378.374 427.977 377.902 427.467 377.925 426.861C377.948 426.255 378.459 425.783 379.064 425.806L397.636 426.519ZM410.775 416.223C411.381 416.246 411.853 416.756 411.83 417.362C411.807 417.968 411.296 418.441 410.69 418.418L378.706 417.188C378.101 417.165 377.629 416.655 377.652 416.049C377.675 415.443 378.184 414.97 378.79 414.993L410.775 416.223ZM408.237 406.068C408.842 406.091 409.315 406.601 409.292 407.207C409.268 407.813 408.759 408.286 408.153 408.263L377.887 407.1C377.282 407.077 376.81 406.567 376.833 405.961C376.856 405.355 377.366 404.882 377.972 404.905L408.237 406.068ZM405.892 395.362C406.498 395.385 406.97 395.896 406.947 396.502C406.924 397.108 406.413 397.581 405.808 397.558L375.715 396.401C375.109 396.378 374.636 395.867 374.66 395.261C374.683 394.655 375.193 394.182 375.799 394.205L405.892 395.362ZM1.3004 306.791L13.4286 307.618C15.2475 307.743 16.6196 309.322 16.489 311.142L13.1616 357.506L17.7014 357.867C18.3055 357.915 18.7559 358.444 18.708 359.049C18.66 359.653 18.1319 360.105 17.5277 360.057L-55.7815 354.241C-56.3858 354.193 -56.837 353.663 -56.7891 353.059C-56.7412 352.454 -56.2121 352.002 -55.6078 352.05L-52.2183 352.318L-50.933 332.559C-50.815 330.745 -49.2512 329.37 -47.4384 329.485L-36.99 330.146C-35.1839 330.261 -33.8086 331.812 -33.9103 333.62L-35.0401 353.682L-29.8958 354.089L-27.5182 322.778C-27.3811 320.972 -25.8139 319.615 -24.0086 319.74L-12.0637 320.563C-10.248 320.689 -8.87805 322.265 -9.00542 324.082L-11.2137 355.572L-5.70914 356.009L-2.20705 309.829C-2.07014 308.025 -0.504044 306.668 1.3004 306.791ZM1.1514 308.983C0.549911 308.942 0.0275421 309.394 -0.0181122 309.996L-3.5202 356.182L10.9727 357.332L14.299 310.985C14.3424 310.378 13.8848 309.851 13.2785 309.81L1.1514 308.983ZM-24.1586 321.931C-24.7227 321.892 -25.2178 322.287 -25.3153 322.832L-25.3292 322.944L-27.7068 354.263L-13.4026 355.398L-11.1954 323.929C-11.153 323.323 -11.6097 322.797 -12.2149 322.755L-24.1586 321.931ZM-47.5767 331.677C-48.1809 331.639 -48.7026 332.097 -48.7419 332.702L-50.0293 352.492L-37.229 353.508L-36.1013 333.497C-36.0675 332.894 -36.5263 332.377 -37.1283 332.339L-47.5767 331.677ZM421.243 308.492C421.243 291.655 407.604 278.006 390.78 278.006C373.956 278.006 360.316 291.655 360.316 308.492C360.316 325.328 373.956 338.977 390.78 338.977C407.604 338.977 421.243 325.328 421.243 308.492ZM399.24 317.303C399.24 315.206 398.699 313.734 397.951 312.685C397.197 311.627 396.179 310.923 395.117 310.455C394.051 309.985 392.97 309.766 392.143 309.666C392.051 309.655 391.962 309.649 391.878 309.641V323.825C395.958 323.416 399.24 320.991 399.24 317.303ZM57.8098 233.133C58.8113 213.749 75.3256 198.847 94.6949 199.85C114.064 200.852 128.955 217.379 127.954 236.762C126.952 256.146 110.438 271.048 91.0685 270.046C71.6991 269.044 56.8084 252.517 57.8098 233.133ZM94.5813 202.044C76.4229 201.105 60.942 215.075 60.0031 233.247C59.0644 251.419 73.0237 266.911 91.1821 267.851C109.34 268.79 124.821 254.821 125.76 236.649C126.699 218.477 112.74 202.984 94.5813 202.044ZM323.306 183.812C324.087 183.399 325.024 183.332 325.851 183.611L374.184 199.942C375.608 200.423 376.333 201.684 376.454 202.922C376.574 204.146 376.129 205.505 375.054 206.388C371.813 209.051 370.609 212.134 370.245 215.754C370.061 217.591 370.093 219.56 370.197 221.694C370.299 223.793 370.475 226.117 370.554 228.488C370.714 233.287 370.498 238.608 368.555 244.363C366.61 250.124 362.958 256.253 356.341 262.722C355.741 263.309 354.913 263.656 354.064 263.661L349.487 263.687C348.195 263.694 347.019 262.945 346.478 261.772L345.74 260.171C345.532 259.719 345.045 259.463 344.555 259.549L340.555 260.248C339.118 260.5 337.687 259.774 337.038 258.466L336.273 256.924C336.057 256.488 335.58 256.246 335.101 256.33L330.891 257.065C329.572 257.296 328.245 256.705 327.534 255.571L326.134 253.338C325.897 252.959 325.455 252.762 325.015 252.839L320.719 253.591C319.345 253.831 317.968 253.178 317.283 251.962L316.27 250.164C316.027 249.734 315.527 249.518 315.048 249.638L312.264 250.334C310.718 250.721 309.134 249.943 308.478 248.522L308.359 248.229L307.769 246.549C307.624 246.136 307.208 245.882 306.775 245.942C305.251 246.153 304.053 245.266 303.5 244.157C302.951 243.056 302.95 241.578 303.919 240.445C314.55 228.025 314.295 216.954 313.817 207.454C313.58 202.735 313.264 198.207 314.347 194.208C315.461 190.095 318.025 186.601 323.306 183.812ZM31.6047 169.812C32.2 169.698 32.7757 170.088 32.89 170.683L36.6236 190.168C37.5151 194.82 34.8861 199.374 30.5263 200.982L41.4185 245.561C41.7983 247.115 40.8811 248.685 39.3507 249.124L39.3518 249.126L37.6205 249.687L37.5905 249.697L37.5605 249.704L35.8143 250.161L35.7864 250.169L35.7575 250.174C34.1726 250.5 32.6186 249.497 32.2607 247.918L27.7178 227.873C26.6491 242.554 16.8502 255.804 1.97788 260.54C-17.5313 266.753 -38.3793 255.961 -44.587 236.437C-50.7943 216.914 -40.0112 196.051 -20.5022 189.839C-9.33762 186.283 2.26497 188.298 11.3093 194.327L6.48547 177.107C6.32211 176.523 6.66298 175.917 7.24656 175.753C7.83019 175.59 8.43575 175.931 8.59937 176.515L13.9506 195.616C14.0603 196.008 14.2001 196.384 14.3654 196.741C14.3903 196.794 14.4088 196.85 14.4244 196.905C14.4757 196.986 14.5252 197.067 14.5691 197.148C15.3102 198.519 16.4573 199.598 17.8172 200.267C17.9002 200.308 17.9832 200.354 18.0669 200.402C18.122 200.416 18.177 200.432 18.2309 200.455C19.5581 201.009 21.0569 201.182 22.5649 200.872C23.2045 200.741 23.8329 201.112 24.0356 201.719L24.0699 201.844L34.4015 247.432C34.4941 247.841 34.893 248.1 35.303 248.023L36.9688 247.588L38.6764 247.036L38.7032 247.027L38.7311 247.019C39.1399 246.91 39.3869 246.494 39.2864 246.083L28.1916 200.675C28.0262 199.998 28.4321 199.312 29.1049 199.133L29.4522 199.031C33.0011 197.899 35.1767 194.279 34.4679 190.581L30.7332 171.097C30.6191 170.502 31.0096 169.927 31.6047 169.812ZM325.149 185.692C324.883 185.602 324.571 185.628 324.331 185.755C319.537 188.286 317.406 191.312 316.466 194.783C315.495 198.368 315.766 202.488 316.01 207.345C316.495 216.998 316.782 228.794 305.587 241.874C305.281 242.231 305.245 242.734 305.465 243.175C305.681 243.608 306.056 243.823 306.473 243.765C307.941 243.562 309.349 244.423 309.84 245.822L310.43 247.501C310.618 248.036 311.183 248.34 311.732 248.202L314.515 247.506C315.953 247.146 317.454 247.793 318.182 249.085L319.195 250.883C319.424 251.288 319.882 251.506 320.34 251.426L324.638 250.675C325.956 250.445 327.283 251.035 327.994 252.169L329.394 254.403C329.631 254.781 330.074 254.979 330.513 254.902L334.723 254.166C336.16 253.915 337.591 254.639 338.24 255.947L339.005 257.49C339.221 257.926 339.698 258.167 340.177 258.084L344.177 257.385C345.649 257.128 347.109 257.893 347.734 259.251L348.472 260.851C348.652 261.242 349.045 261.492 349.475 261.49L354.052 261.464C354.322 261.462 354.607 261.346 354.807 261.151C361.207 254.894 364.654 249.054 366.475 243.659C368.298 238.259 368.516 233.236 368.36 228.561C368.281 226.195 368.112 223.998 368.005 221.802C367.9 219.64 367.859 217.538 368.061 215.535C368.469 211.475 369.874 207.801 373.661 204.69C374.103 204.327 374.326 203.721 374.268 203.135C374.213 202.564 373.917 202.17 373.482 202.023L325.149 185.692ZM12.2816 197.741C3.50372 190.854 -8.4105 188.293 -19.8365 191.932C-38.1902 197.776 -48.3343 217.404 -42.4945 235.771C-36.6544 254.139 -17.0416 264.292 1.31219 258.447C19.6659 252.603 29.81 232.974 23.9702 214.607C22.5209 210.05 20.2255 206 17.3133 202.576C17.2137 202.458 17.0628 202.344 16.8492 202.239C15.0898 201.374 13.6017 199.975 12.6385 198.193C12.5246 197.983 12.4029 197.836 12.2816 197.741ZM94.0121 213.072C94.6174 213.104 95.0832 213.621 95.0519 214.227L94.8729 217.682C99.2083 218.197 103.495 220.558 104.479 225.228C104.604 225.822 104.224 226.404 103.631 226.529C103.038 226.654 102.456 226.274 102.33 225.681C101.629 222.352 98.4744 220.343 94.7592 219.875L94.0324 233.943C94.2269 233.968 94.442 233.999 94.6735 234.039C95.701 234.216 97.0858 234.568 98.4682 235.265C99.8543 235.964 101.266 237.025 102.292 238.634C103.323 240.252 103.916 242.348 103.778 245.023C103.479 250.81 98.0903 253.661 93.0248 253.807C93.0188 253.808 93.0126 253.807 93.0066 253.807L92.8265 257.294C92.7952 257.9 92.2785 258.366 91.673 258.335C91.0678 258.303 90.603 257.786 90.6343 257.18L90.8133 253.702C86.4007 253.159 82.1027 250.582 81.1432 245.561C81.0295 244.965 81.4204 244.39 82.0158 244.276C82.6111 244.162 83.1861 244.553 83.3 245.149C84.0085 248.856 87.2118 251.016 90.927 251.507L91.7299 235.952C91.5435 235.929 91.3381 235.903 91.1178 235.867C90.1043 235.7 88.7372 235.376 87.3702 234.735C86.0018 234.093 84.5943 233.113 83.5626 231.622C82.521 230.116 81.9152 228.162 82.0436 225.675C82.1818 223.002 83.6147 220.972 85.6154 219.631C87.5921 218.307 90.1395 217.634 92.6796 217.576L92.8586 214.113C92.89 213.507 93.4067 213.041 94.0121 213.072ZM-17.4589 199.41C-3.2318 194.88 11.9715 202.748 16.4986 216.986C21.0256 231.224 13.1617 246.438 -1.06541 250.969C-15.2925 255.499 -30.4958 247.63 -35.023 233.393C-39.55 219.155 -31.6861 203.94 -17.4589 199.41ZM247.039 180.123C250.414 180.16 253.215 182.745 253.525 186.109L258.893 244.414C259.249 248.277 256.211 251.609 252.335 251.609H177.507C174.094 251.609 171.247 249 170.947 245.598L165.734 186.475C165.391 182.593 168.473 179.262 172.367 179.305L247.039 180.123ZM93.1202 251.604C97.5983 251.42 101.375 248.973 101.585 244.91C101.703 242.636 101.198 241.005 100.441 239.816C99.6772 238.619 98.607 237.795 97.4799 237.227C96.349 236.657 95.1887 236.357 94.2994 236.203C94.1655 236.18 94.0379 236.163 93.9188 236.147L93.1202 251.604ZM341.062 246.087C341.256 245.512 341.879 245.204 342.454 245.398L352.702 248.86C353.276 249.054 353.584 249.678 353.39 250.252C353.196 250.827 352.573 251.136 351.999 250.942L341.752 247.479C341.177 247.285 340.868 246.662 341.062 246.087ZM14.4062 217.652C10.2467 204.571 -3.7216 197.341 -16.7932 201.503C-29.8651 205.665 -37.0899 219.645 -32.9305 232.727C-28.771 245.808 -14.8028 253.038 -1.73109 248.876C11.3408 244.714 18.5656 230.734 14.4062 217.652ZM172.342 181.502C169.746 181.474 167.692 183.694 167.92 186.282L173.133 245.405C173.333 247.673 175.232 249.412 177.507 249.412H252.335C254.919 249.412 256.945 247.19 256.708 244.615L251.339 186.31C251.133 184.068 249.265 182.344 247.015 182.32L172.342 181.502ZM252.217 235.908C252.821 235.851 253.357 236.294 253.415 236.898C253.472 237.501 253.029 238.038 252.425 238.096C247.945 238.523 244.56 242.15 244.397 246.434C244.374 247.041 243.865 247.513 243.259 247.49C242.653 247.467 242.18 246.957 242.203 246.351C242.409 240.946 246.662 236.438 252.217 235.908ZM176.247 235.903C181.827 235.982 186.43 240.132 187.071 245.502C187.143 246.105 186.714 246.652 186.112 246.724C185.51 246.796 184.964 246.365 184.892 245.763C184.383 241.506 180.717 238.164 176.216 238.1C175.61 238.091 175.126 237.593 175.135 236.987C175.143 236.38 175.641 235.895 176.247 235.903ZM237.13 215.862C237.13 202.03 225.926 190.817 212.105 190.817C198.283 190.817 187.079 202.03 187.079 215.862C187.079 229.693 198.283 240.906 212.105 240.906C225.926 240.906 237.13 229.693 237.13 215.862ZM320.255 229.628C320.448 229.054 321.072 228.745 321.646 228.939L341.769 235.738C342.343 235.932 342.652 236.555 342.458 237.13C342.264 237.705 341.641 238.014 341.067 237.82L320.944 231.021C320.37 230.827 320.061 230.203 320.255 229.628ZM218.919 223.155C218.919 221.454 218.48 220.275 217.887 219.443C217.287 218.601 216.475 218.037 215.619 217.66C214.76 217.28 213.884 217.102 213.212 217.021C213.209 217.021 213.205 217.021 213.202 217.02V228.341C216.433 227.949 218.919 226.006 218.919 223.155ZM92.566 219.778C90.4068 219.854 88.3551 220.439 86.8364 221.456C85.3025 222.484 84.332 223.928 84.2358 225.788C84.1301 227.834 84.6264 229.3 85.3678 230.372C86.119 231.458 87.176 232.216 88.3017 232.745C89.429 233.274 90.586 233.553 91.4726 233.699C91.6029 233.72 91.7272 233.734 91.8435 233.75L92.566 219.778ZM322.96 219.15C323.154 218.575 323.777 218.266 324.352 218.46L359.007 230.17C359.581 230.364 359.889 230.987 359.695 231.562C359.501 232.136 358.879 232.445 358.305 232.251L323.648 220.542C323.074 220.348 322.766 219.724 322.96 219.15ZM324.868 209.188C325.062 208.613 325.685 208.304 326.26 208.498L359.052 219.578C359.626 219.772 359.934 220.395 359.74 220.97C359.546 221.545 358.924 221.854 358.35 221.66L325.556 210.579C324.983 210.385 324.675 209.763 324.868 209.188ZM325.464 198.193C325.658 197.619 326.28 197.31 326.855 197.503L359.461 208.521C360.036 208.715 360.343 209.338 360.15 209.912C359.956 210.487 359.334 210.796 358.759 210.602L326.152 199.585C325.578 199.39 325.271 198.768 325.464 198.193ZM22.1179 203.162C21.6114 203.218 21.1079 203.234 20.6107 203.21C21.4526 204.356 22.2323 205.558 22.9454 206.813L22.1179 203.162ZM181.237 184.125C181.839 184.197 182.269 184.743 182.197 185.346C181.556 190.717 176.953 194.866 171.373 194.945C170.767 194.954 170.269 194.469 170.261 193.863C170.252 193.256 170.736 192.757 171.342 192.748C175.843 192.684 179.509 189.342 180.018 185.085C180.09 184.483 180.636 184.053 181.237 184.125ZM237.331 184.434C237.925 184.314 238.505 184.699 238.625 185.293C239.475 189.495 243.399 192.53 247.89 192.23C248.495 192.189 249.018 192.648 249.058 193.253C249.098 193.858 248.641 194.382 248.037 194.423C242.469 194.795 237.546 191.03 236.473 185.729C236.353 185.134 236.737 184.554 237.331 184.434ZM16.8117 173.082C17.397 172.924 18.0002 173.271 18.158 173.857L21.8177 187.441C22.2987 189.227 21.2421 191.066 19.4573 191.548C17.6724 192.029 15.8353 190.971 15.3538 189.185L11.6931 175.601C11.5353 175.015 11.8819 174.413 12.467 174.255C13.0523 174.097 13.6556 174.443 13.8134 175.029L17.4731 188.612C17.6387 189.227 18.2715 189.591 18.8859 189.426C19.4999 189.26 19.8638 188.627 19.6984 188.013L16.0377 174.428C15.8799 173.843 16.2265 173.24 16.8117 173.082ZM26.2449 171.018C26.8349 170.88 27.4259 171.246 27.5645 171.837L30.7772 185.534C31.1998 187.335 30.0836 189.138 28.2838 189.561C26.484 189.984 24.6824 188.867 24.2596 187.065L21.0459 173.368C20.9073 172.778 21.2736 172.187 21.8638 172.048C22.454 171.909 23.0448 172.276 23.1834 172.866L26.3971 186.563C26.5428 187.183 27.1627 187.567 27.7821 187.422C28.4015 187.276 28.7862 186.656 28.6407 186.036L25.427 172.339C25.2886 171.748 25.6548 171.157 26.2449 171.018ZM428.589 120.098L440.716 120.925C442.535 121.049 443.907 122.629 443.776 124.449L440.449 170.813L444.989 171.174C445.593 171.222 446.044 171.751 445.997 172.356C445.949 172.96 445.419 173.412 444.815 173.364L371.506 167.548C370.902 167.499 370.452 166.97 370.499 166.365C370.547 165.761 371.076 165.309 371.68 165.357L375.069 165.625L376.356 145.866C376.474 144.052 378.036 142.677 379.849 142.791L390.299 143.453C392.104 143.568 393.48 145.119 393.378 146.927L392.248 166.989L397.393 167.396L399.769 136.085C399.906 134.279 401.475 132.922 403.28 133.046L415.224 133.87C417.04 133.996 418.409 135.572 418.282 137.389L416.075 168.879L421.578 169.316L425.082 123.136C425.218 121.331 426.784 119.975 428.589 120.098ZM125 103.81C126.478 103.81 127.563 104.744 128.081 105.857C128.593 106.959 128.623 108.365 127.917 109.542C125.748 113.159 125.575 116.518 126.34 120.111C127.129 123.818 128.856 127.585 130.494 132.194C132.106 136.729 133.542 141.879 133.548 148.002C133.555 154.13 132.13 161.167 128.119 169.497C127.752 170.258 127.087 170.869 126.285 171.162L122.317 172.606C121.052 173.066 119.635 172.709 118.738 171.706L117.729 170.577C117.383 170.19 116.813 170.098 116.364 170.357L113.219 172.169C111.9 172.929 110.233 172.686 109.186 171.58L108.19 170.529C107.841 170.16 107.285 170.079 106.846 170.333L103.509 172.255C102.295 172.954 100.772 172.809 99.7128 171.893L97.9472 170.367C97.5941 170.062 97.0867 170.014 96.6823 170.247L93.2649 172.215C92.0018 172.943 90.4111 172.753 89.3544 171.749L88.0734 170.531C87.6993 170.176 87.1282 170.128 86.7013 170.418L84.6592 171.805C83.1971 172.798 81.2126 172.459 80.1624 171.037L79.2126 169.751C78.9692 169.421 78.521 169.319 78.1589 169.511C76.8387 170.208 75.454 169.795 74.5871 168.967C73.7267 168.145 73.244 166.796 73.7649 165.445C79.7071 150.043 76.1183 139.482 72.7841 130.534C71.1262 126.085 69.4528 121.861 69.1983 117.697C68.9373 113.425 70.1614 109.263 74.0768 104.883C74.6884 104.199 75.5815 103.81 76.4855 103.81H125ZM428.439 122.29C427.838 122.249 427.316 122.701 427.27 123.303L423.767 169.489L438.261 170.639L441.588 124.292C441.631 123.685 441.173 123.158 440.567 123.117L428.439 122.29ZM76.4855 106.007C76.1928 106.007 75.8991 106.14 75.7126 106.349C72.1651 110.317 71.1663 113.911 71.3894 117.563C71.6193 121.324 73.1371 125.193 74.8411 129.766C78.2309 138.863 82.0517 150.068 75.8134 166.237C75.6609 166.632 75.7798 167.069 76.1028 167.378C76.4195 167.681 76.8 167.743 77.1341 167.567C78.4559 166.869 80.0898 167.243 80.9781 168.446L81.9279 169.732C82.278 170.205 82.9392 170.318 83.4265 169.987L85.4686 168.601C86.7496 167.731 88.4635 167.871 89.586 168.938L90.8659 170.156C91.2181 170.49 91.7494 170.554 92.1704 170.311L95.5868 168.343C96.8002 167.643 98.323 167.788 99.3826 168.704L101.148 170.231C101.501 170.536 102.009 170.584 102.413 170.351L105.75 168.428C107.069 167.668 108.737 167.912 109.784 169.017L110.779 170.069C111.128 170.437 111.684 170.518 112.124 170.265L115.268 168.454C116.617 167.677 118.327 167.951 119.365 169.112L120.374 170.241C120.673 170.576 121.145 170.694 121.567 170.541L125.534 169.098C125.79 169.005 126.018 168.797 126.141 168.543C130.025 160.479 131.359 153.766 131.353 148.004C131.347 142.236 129.998 137.354 128.426 132.931C126.88 128.58 125.022 124.461 124.193 120.568C123.34 116.562 123.518 112.608 126.035 108.412C126.324 107.93 126.331 107.302 126.09 106.784C125.855 106.279 125.455 106.007 125 106.007H76.4855ZM403.129 135.238C402.527 135.197 402.004 135.649 401.958 136.251L399.582 167.57L413.886 168.705L416.092 137.236C416.135 136.63 415.678 136.104 415.073 136.062L403.129 135.238ZM379.711 144.984C379.107 144.946 378.585 145.404 378.546 146.009L377.258 165.799L390.058 166.815L391.186 146.804C391.22 146.201 390.761 145.683 390.159 145.645L379.711 144.984ZM120.546 157.473C121.153 157.473 121.644 157.965 121.644 158.572C121.644 159.178 121.152 159.67 120.546 159.67H110.234C109.628 159.67 109.136 159.178 109.136 158.572C109.136 157.965 109.628 157.474 110.234 157.473H120.546ZM344.452 79.7763C344.55 79.1776 345.114 78.7725 345.713 78.8709C346.311 78.9693 346.716 79.5338 346.617 80.1324L343.402 99.7093C343.337 100.11 343.304 100.509 343.303 100.902C343.303 100.961 343.297 101.019 343.288 101.075C343.3 101.171 343.311 101.266 343.317 101.358C343.41 102.914 343.993 104.377 344.943 105.558C345.001 105.63 345.056 105.707 345.111 105.785C345.156 105.821 345.199 105.86 345.239 105.903C346.208 106.967 347.493 107.758 348.991 108.114C349.668 108.276 350.092 108.95 349.945 109.631L340.059 155.319C339.97 155.73 340.224 156.134 340.629 156.236L342.326 156.546L344.1 156.767L344.129 156.771L344.157 156.776C344.574 156.85 344.974 156.577 345.056 156.161L354.174 110.315L354.205 110.189C354.379 109.618 354.929 109.242 355.524 109.288L355.652 109.304L356.01 109.359C359.704 109.833 363.204 107.472 364.123 103.821L368.967 84.5833C369.115 83.995 369.711 83.6381 370.299 83.7863C370.887 83.9346 371.242 84.5315 371.094 85.1197L366.252 104.358C365.096 108.951 360.79 111.968 356.159 111.582L347.209 156.59C346.897 158.16 345.403 159.194 343.83 158.945V158.947L342.025 158.724L341.994 158.72L341.962 158.715L340.187 158.389L340.159 158.384L340.13 158.378C338.556 158.002 337.571 156.436 337.913 154.854L342.259 134.767C335.091 147.62 320.615 155.485 305.137 153.488C284.832 150.868 270.494 132.273 273.111 111.953C275.728 91.6325 294.311 77.2823 314.616 79.9018C326.236 81.4008 335.901 88.1339 341.552 97.4232L344.452 79.7763ZM25.2362 85.9318C28.6117 85.9687 31.4129 88.5538 31.7226 91.9178L37.091 150.223C37.4466 154.085 34.4087 157.418 30.5327 157.419H-44.2954C-47.7084 157.419 -50.5558 154.809 -50.8558 151.407L-56.0687 92.2836C-56.4107 88.4015 -53.3305 85.072 -49.4365 85.1143L25.2362 85.9318ZM-49.4601 87.3114C-52.0562 87.2829 -54.1098 89.5024 -53.8819 92.0905L-48.669 151.214C-48.469 153.482 -46.5707 155.222 -44.2954 155.222H30.5327C33.1166 155.221 35.1413 152.999 34.9042 150.424L29.5369 92.1195C29.3304 89.877 27.4628 88.1536 25.2126 88.1288L-49.4601 87.3114ZM30.4138 141.718C31.0173 141.66 31.5536 142.103 31.6111 142.707C31.6685 143.311 31.2252 143.846 30.6217 143.904C26.1409 144.331 22.7568 147.959 22.5938 152.244C22.5706 152.85 22.061 153.322 21.4554 153.299C20.8496 153.276 20.3765 152.766 20.3995 152.16C20.6051 146.755 24.8586 142.247 30.4138 141.718ZM-45.556 141.712C-39.9763 141.791 -35.3736 145.941 -34.7325 151.311C-34.6606 151.914 -35.0899 152.46 -35.6919 152.532C-36.2938 152.604 -36.8398 152.174 -36.9118 151.572C-37.4199 147.315 -41.0863 143.973 -45.5871 143.909C-46.1931 143.901 -46.6771 143.402 -46.6687 142.796C-46.6602 142.189 -46.1622 141.704 -45.556 141.712ZM314.335 82.0816C295.233 79.6173 277.751 93.1162 275.288 112.233C272.826 131.349 286.315 148.845 305.418 151.309C324.52 153.773 342.002 140.274 344.465 121.157C345.075 116.414 344.705 111.773 343.512 107.437C343.471 107.289 343.382 107.122 343.233 106.936C342.004 105.409 341.245 103.511 341.125 101.489C341.11 101.25 341.062 101.066 340.993 100.928C335.945 90.9742 326.227 83.6157 314.335 82.0816ZM106.672 148.467C107.278 148.467 107.77 148.959 107.77 149.566C107.769 150.172 107.278 150.664 106.672 150.664H86.4237C85.8176 150.664 85.3263 150.172 85.326 149.566C85.326 148.959 85.8174 148.467 86.4237 148.467H106.672ZM15.327 121.671C15.327 107.839 4.12241 96.6262 -9.69897 96.6262C-23.5201 96.6264 -34.7239 107.839 -34.7239 121.671C-34.7239 135.502 -23.5201 146.715 -9.69897 146.716C4.1224 146.716 15.327 135.503 15.327 121.671ZM160.767 107.331C161.769 87.9475 178.282 73.0457 197.651 74.0477C217.021 75.05 231.911 91.5766 230.91 110.96C229.908 130.344 213.394 145.246 194.025 144.244C174.656 143.242 159.766 126.715 160.767 107.331ZM283.065 113.237C284.974 98.4181 298.525 87.9532 313.333 89.8635C328.14 91.7738 338.596 105.335 336.688 120.154C334.779 134.973 321.227 145.438 306.42 143.527C291.613 141.617 281.156 128.055 283.065 113.237ZM197.539 76.2426C179.38 75.303 163.898 89.2728 162.959 107.445C162.021 125.617 175.98 141.11 194.138 142.049C212.297 142.989 227.779 129.019 228.718 110.847C229.656 92.6749 215.697 77.1823 197.539 76.2426ZM313.052 92.0422C299.447 90.2872 286.996 99.9018 285.242 113.517C283.488 127.132 293.096 139.592 306.701 141.348C320.306 143.103 332.757 133.488 334.511 119.873C336.264 106.258 326.657 93.7974 313.052 92.0422ZM-2.88345 128.965C-2.88345 127.263 -3.32214 126.085 -3.91575 125.252C-4.51572 124.41 -5.32796 123.846 -6.18402 123.469C-7.04396 123.09 -7.91967 122.911 -8.59164 122.831C-8.59451 122.83 -8.59736 122.83 -8.60022 122.829V134.15C-5.36939 133.758 -2.88349 131.815 -2.88345 128.965ZM120.546 137.584C121.153 137.584 121.644 138.076 121.644 138.683C121.644 139.289 121.153 139.781 120.546 139.781H85.6733C85.0671 139.781 84.5756 139.289 84.5756 138.683C84.5756 138.076 85.0671 137.584 85.6733 137.584H120.546ZM196.968 87.2706C197.574 87.3019 198.04 87.819 198.008 88.4249L197.829 91.8803C202.165 92.3951 206.451 94.7557 207.435 99.4261C207.56 100.02 207.181 100.602 206.588 100.727C205.995 100.852 205.412 100.472 205.287 99.8788C204.586 96.5501 201.431 94.5409 197.716 94.073L196.989 108.141C197.183 108.166 197.398 108.197 197.63 108.237C198.657 108.415 200.042 108.766 201.425 109.463C202.811 110.162 204.223 111.223 205.248 112.832C206.28 114.451 206.872 116.546 206.734 119.221C206.435 125.008 201.047 127.859 195.981 128.006C195.975 128.006 195.969 128.005 195.963 128.006L195.783 131.492C195.752 132.098 195.236 132.564 194.631 132.533C194.025 132.501 193.559 131.984 193.591 131.378L193.77 127.899C189.357 127.355 185.06 124.78 184.101 119.759C183.987 119.163 184.377 118.588 184.972 118.474C185.568 118.36 186.142 118.751 186.256 119.347C186.965 123.054 190.168 125.214 193.883 125.706L194.687 110.15C194.501 110.127 194.295 110.101 194.074 110.065C193.061 109.899 191.694 109.574 190.327 108.933C188.958 108.291 187.551 107.311 186.519 105.82C185.477 104.314 184.872 102.36 185 99.8734C185.138 97.2004 186.571 95.1699 188.572 93.8295C190.549 92.5051 193.097 91.8323 195.637 91.7741L195.816 88.3112C195.847 87.7054 196.363 87.2394 196.968 87.2706ZM117.359 127.452C117.965 127.452 118.457 127.944 118.457 128.551C118.457 129.157 117.965 129.649 117.359 129.649H84.3612C83.755 129.649 83.2635 129.157 83.2635 128.551C83.2637 127.944 83.7551 127.452 84.3612 127.452H117.359ZM196.077 125.802C200.555 125.619 204.332 123.171 204.542 119.108C204.659 116.834 204.154 115.202 203.397 114.014C202.634 112.816 201.564 111.992 200.437 111.424C199.306 110.854 198.145 110.555 197.256 110.402C197.122 110.378 196.994 110.362 196.875 110.345L196.077 125.802ZM114.359 116.758C114.965 116.758 115.457 117.249 115.457 117.856C115.456 118.463 114.965 118.955 114.359 118.955H81.5484C80.9423 118.955 80.4509 118.463 80.4507 117.856C80.4507 117.249 80.9422 116.758 81.5484 116.758H114.359ZM346.232 109.407C346.511 110.801 346.71 112.22 346.826 113.658L347.617 110.001C347.135 109.838 346.673 109.639 346.232 109.407ZM195.522 93.9764C193.364 94.0521 191.312 94.6371 189.794 95.6542C188.26 96.6818 187.289 98.126 187.193 99.9861C187.088 102.032 187.583 103.498 188.324 104.57C189.076 105.656 190.133 106.414 191.259 106.943C192.386 107.472 193.543 107.751 194.429 107.897C194.56 107.918 194.684 107.933 194.801 107.949L195.522 93.9764ZM-40.5661 89.9343C-39.9642 90.0063 -39.5348 90.5527 -39.6067 91.1551C-40.2478 96.5257 -44.8505 100.675 -50.4302 100.754C-51.0362 100.763 -51.5341 100.278 -51.5429 99.6717C-51.5515 99.0651 -51.0675 98.5657 -50.4613 98.5571C-45.9605 98.4934 -42.2941 95.1516 -41.786 90.8944C-41.714 90.292 -41.168 89.8623 -40.5661 89.9343ZM359.227 82.544C359.351 81.9503 359.933 81.5694 360.526 81.6933C361.119 81.8173 361.5 82.3997 361.376 82.9935L358.505 96.7656C358.375 97.389 358.775 98.0001 359.398 98.1302C360.021 98.2601 360.632 97.8599 360.762 97.2366L363.631 83.4644C363.755 82.8705 364.337 82.4888 364.931 82.6127C365.524 82.7365 365.904 83.3189 365.781 83.9128L362.91 97.685C362.533 99.4961 360.76 100.659 358.95 100.281C357.14 99.9033 355.979 98.1284 356.356 96.3172L359.227 82.544ZM15.5275 90.2432C16.1216 90.1229 16.701 90.5079 16.8213 91.1025C17.6714 95.3047 21.5951 98.3392 26.0863 98.039C26.6911 97.9986 27.2143 98.4571 27.2547 99.0624C27.2949 99.6676 26.8368 100.191 26.232 100.232C20.6643 100.604 15.7422 96.8393 14.6699 91.538C14.5497 90.9435 14.9333 90.3636 15.5275 90.2432ZM349.807 80.613C349.912 80.0154 350.48 79.6151 351.078 79.7194C351.675 79.8238 352.075 80.393 351.971 80.9906L349.552 94.8497C349.443 95.4768 349.862 96.0744 350.488 96.1842C351.115 96.2937 351.712 95.8739 351.822 95.2466L354.24 81.3876C354.344 80.79 354.913 80.3897 355.51 80.4939C356.107 80.5983 356.507 81.1675 356.403 81.7652L353.985 95.6253C353.667 97.4477 351.932 98.6673 350.111 98.349C348.29 98.0307 347.071 96.2947 347.389 94.4721L349.807 80.613ZM107.418 774.863C107.418 780.882 101.981 784.139 96.7123 784.565C96.6911 784.567 96.6693 784.566 96.648 784.568V788.265C96.6479 788.871 96.1565 789.363 95.5503 789.363C94.9442 789.363 94.4528 788.871 94.4527 788.265V784.577C89.8156 784.262 85.1862 781.815 83.9164 776.636C83.7719 776.047 84.1326 775.451 84.7214 775.307C85.3101 775.162 85.9041 775.523 86.0485 776.112C86.9992 779.99 90.5111 782.082 94.4527 782.381V766.001C94.2449 765.986 94.0137 765.967 93.7634 765.939C92.6994 765.821 91.2596 765.557 89.8036 764.963C88.3461 764.369 86.8314 763.427 85.6808 761.935C84.5195 760.428 83.7856 758.432 83.7856 755.839C83.7856 753.06 85.1616 750.877 87.1676 749.377C89.151 747.894 91.7657 747.058 94.4076 746.86C94.4226 746.859 94.4377 746.858 94.4527 746.857V743.186C94.4527 742.579 94.9441 742.088 95.5503 742.088C96.1566 742.088 96.648 742.579 96.648 743.186V746.85C101.204 747.14 105.808 749.364 107.084 754.173C107.239 754.76 106.89 755.361 106.304 755.517C105.718 755.672 105.118 755.323 104.962 754.737C104.039 751.256 100.586 749.321 96.648 749.046V763.868C96.8634 763.884 97.1041 763.906 97.3652 763.938C98.4443 764.068 99.9037 764.358 101.379 765.008C102.857 765.66 104.38 766.688 105.531 768.303C106.689 769.927 107.418 772.072 107.418 774.863ZM132.209 764.934C132.209 785.196 115.796 801.622 95.5493 801.622C75.3028 801.622 58.8904 785.196 58.8904 764.934C58.8904 744.673 75.3028 728.247 95.5493 728.247C115.796 728.247 132.209 744.673 132.209 764.934ZM-0.646278 758.979C-0.646278 765.327 -6.37981 768.775 -11.9651 769.226C-12.0092 769.23 -12.0538 769.231 -12.098 769.234V773.229C-12.0981 773.836 -12.5895 774.327 -13.1957 774.327C-13.8017 774.327 -14.2934 773.835 -14.2934 773.229V769.244C-19.2251 768.929 -24.1512 766.339 -25.4975 760.848C-25.642 760.259 -25.2812 759.664 -24.6925 759.519C-24.1038 759.375 -23.5098 759.736 -23.3654 760.325C-22.339 764.511 -18.5342 766.748 -14.2934 767.047V749.491C-14.5295 749.476 -14.7966 749.455 -15.0877 749.422C-16.2151 749.297 -17.7397 749.017 -19.2802 748.389C-20.8219 747.76 -22.4207 746.766 -23.6345 745.191C-24.8589 743.603 -25.6347 741.495 -25.6347 738.752C-25.6347 735.823 -24.1849 733.521 -22.0662 731.937C-19.9701 730.37 -17.2038 729.484 -14.4049 729.275C-14.3678 729.272 -14.3306 729.27 -14.2934 729.267V725.298C-14.2933 724.691 -13.8017 724.2 -13.1957 724.199C-12.5895 724.199 -12.0981 724.691 -12.098 725.298V729.258C-7.25056 729.548 -2.35047 731.903 -0.998947 736.998C-0.843475 737.585 -1.19251 738.187 -1.77827 738.343C-2.36414 738.498 -2.96584 738.149 -3.12143 737.563C-4.11962 733.799 -7.86209 731.73 -12.098 731.454V747.355C-11.8538 747.372 -11.5767 747.396 -11.2737 747.432C-10.1307 747.57 -8.58655 747.877 -7.02658 748.565C-5.46268 749.255 -3.85405 750.34 -2.63905 752.045C-1.41785 753.759 -0.646324 756.025 -0.646278 758.979ZM85.9809 755.839C85.981 757.991 86.5805 759.504 87.4195 760.593C88.2692 761.695 89.4216 762.435 90.6311 762.928C91.8419 763.422 93.0694 763.651 94.0056 763.755C94.1643 763.773 94.3141 763.784 94.4527 763.795V749.061C92.175 749.25 90.0338 749.977 88.4818 751.138C86.9258 752.301 85.9809 753.874 85.9809 755.839ZM25.7132 748.422C25.7132 769.928 8.29337 787.361 -13.1957 787.362C-34.6848 787.362 -52.1057 769.928 -52.1057 748.422C-52.1055 726.917 -34.6847 709.484 -13.1957 709.484C8.29324 709.484 25.713 726.917 25.7132 748.422ZM-23.4394 738.752C-23.4393 741.054 -22.798 742.679 -21.8957 743.849C-20.9827 745.034 -19.7455 745.826 -18.4515 746.354C-17.1563 746.882 -15.8439 747.128 -14.8444 747.239C-14.6464 747.261 -14.4617 747.275 -14.2934 747.287V731.469C-16.7527 731.662 -19.0723 732.441 -20.752 733.696C-22.4207 734.944 -23.4394 736.637 -23.4394 738.752ZM411.79 683.679C411.79 688.986 407.024 691.841 402.44 692.238V695.314C402.44 695.921 401.948 696.413 401.342 696.413C400.736 696.413 400.244 695.921 400.244 695.314V692.247C396.221 691.932 392.212 689.781 391.101 685.253C390.957 684.663 391.318 684.068 391.906 683.923C392.495 683.779 393.089 684.14 393.234 684.729C394.026 687.963 396.929 689.75 400.244 690.048V676.116C400.099 676.105 399.941 676.094 399.775 676.075C398.842 675.971 397.579 675.74 396.298 675.218C395.017 674.695 393.678 673.865 392.659 672.544C391.63 671.208 390.984 669.443 390.984 667.163C390.984 664.696 392.207 662.76 393.979 661.436C395.703 660.147 397.962 659.416 400.244 659.231V656.176C400.244 655.57 400.736 655.078 401.342 655.078C401.948 655.078 402.439 655.57 402.44 656.176V659.222C406.388 659.512 410.378 661.467 411.495 665.679C411.651 666.265 411.302 666.867 410.716 667.023C410.13 667.179 409.529 666.83 409.373 666.243C408.606 663.35 405.756 661.695 402.44 661.42V674.002C402.593 674.014 402.759 674.029 402.935 674.05C403.881 674.164 405.163 674.418 406.461 674.991C407.762 675.564 409.107 676.471 410.126 677.9C411.15 679.337 411.79 681.23 411.79 683.679ZM433.314 675.059C433.314 692.73 419 707.055 401.342 707.055C383.684 707.055 369.37 692.73 369.37 675.059C369.37 657.388 383.684 643.063 401.342 643.063C419 643.063 433.314 657.388 433.314 675.059ZM393.179 667.163C393.179 669.002 393.691 670.284 394.398 671.202C395.116 672.133 396.092 672.761 397.126 673.183C398.161 673.605 399.213 673.803 400.017 673.892C400.095 673.901 400.172 673.905 400.244 673.911V661.436C398.347 661.618 396.578 662.235 395.292 663.197C393.971 664.184 393.179 665.51 393.179 667.163ZM128.303 571.401C128.303 577.157 123.104 580.26 118.092 580.665C118.088 580.665 118.085 580.664 118.082 580.665V584.119C118.082 584.726 117.59 585.217 116.984 585.217C116.378 585.217 115.886 584.726 115.886 584.119V580.671C111.487 580.356 107.099 578.024 105.89 573.097C105.746 572.508 106.106 571.913 106.694 571.768C107.283 571.624 107.878 571.985 108.023 572.574C108.912 576.201 112.187 578.175 115.886 578.474V563.041C115.703 563.028 115.5 563.013 115.283 562.989C114.27 562.876 112.898 562.624 111.51 562.058C110.12 561.491 108.674 560.593 107.575 559.166C106.464 557.726 105.764 555.82 105.764 553.348C105.764 550.689 107.081 548.602 108.996 547.17C110.886 545.757 113.374 544.959 115.886 544.77V541.339C115.886 540.733 116.378 540.241 116.984 540.241C117.59 540.241 118.082 540.733 118.082 541.339V544.763C122.403 545.054 126.769 547.174 127.984 551.753C128.139 552.339 127.79 552.94 127.204 553.096C126.618 553.251 126.018 552.902 125.862 552.316C124.999 549.062 121.78 547.235 118.082 546.959V560.915C118.274 560.93 118.486 560.95 118.714 560.977C119.742 561.101 121.132 561.377 122.538 561.997C123.948 562.619 125.402 563.6 126.502 565.143C127.608 566.695 128.303 568.742 128.303 571.401ZM151.83 561.978C151.83 581.237 136.229 596.85 116.984 596.85C97.7395 596.85 82.139 581.237 82.139 561.978C82.1393 542.719 97.7396 527.107 116.984 527.107C136.229 527.107 151.83 542.719 151.83 561.978ZM107.959 553.348C107.959 555.378 108.524 556.802 109.312 557.824C110.111 558.861 111.197 559.558 112.338 560.024C113.481 560.489 114.64 560.706 115.525 560.805C115.652 560.819 115.773 560.827 115.886 560.837V546.977C113.756 547.163 111.759 547.847 110.31 548.93C108.845 550.025 107.959 551.503 107.959 553.348ZM339.416 522.993C339.416 528.748 334.217 531.85 329.204 532.255C329.201 532.255 329.198 532.255 329.195 532.255V535.71C329.195 536.317 328.703 536.809 328.097 536.809C327.491 536.809 326.999 536.317 326.999 535.71V532.263C322.6 531.948 318.211 529.615 317.003 524.688C316.859 524.099 317.219 523.504 317.807 523.36C318.396 523.215 318.991 523.575 319.135 524.164C320.025 527.792 323.3 529.767 326.999 530.066V514.633C326.815 514.62 326.613 514.603 326.396 514.579C325.383 514.466 324.011 514.215 322.623 513.649C321.233 513.083 319.787 512.184 318.687 510.758C317.577 509.318 316.877 507.411 316.877 504.939C316.877 502.281 318.194 500.193 320.109 498.761C321.999 497.348 324.487 496.551 326.999 496.361V492.931C326.999 492.324 327.491 491.832 328.097 491.832C328.703 491.832 329.195 492.324 329.195 492.931V496.355C333.515 496.645 337.882 498.765 339.096 503.343C339.252 503.929 338.903 504.532 338.317 504.687C337.731 504.842 337.131 504.493 336.975 503.907C336.112 500.654 332.893 498.826 329.195 498.551V512.507C329.387 512.521 329.599 512.541 329.827 512.569C330.855 512.692 332.245 512.969 333.651 513.589C335.061 514.211 336.515 515.191 337.615 516.734C338.721 518.286 339.416 520.334 339.416 522.993ZM362.943 513.57C362.943 532.829 347.342 548.442 328.097 548.442C308.852 548.442 293.252 532.829 293.252 513.57C293.252 494.311 308.852 478.698 328.097 478.697C347.342 478.697 362.943 494.31 362.943 513.57ZM319.072 504.939C319.072 506.97 319.638 508.394 320.426 509.416C321.225 510.452 322.31 511.149 323.451 511.614C324.594 512.08 325.753 512.298 326.638 512.396C326.765 512.41 326.886 512.418 326.999 512.427V498.567C324.869 498.754 322.872 499.439 321.423 500.522C319.958 501.617 319.072 503.095 319.072 504.939ZM-9.68504 437.132C-9.68518 442.439 -14.4504 445.294 -19.0347 445.692V448.767C-19.0349 449.374 -19.5264 449.866 -20.1324 449.866C-20.7385 449.866 -21.2299 449.374 -21.23 448.767V445.7C-25.2529 445.385 -29.2624 443.234 -30.3728 438.706C-30.5172 438.117 -30.1575 437.521 -29.5688 437.377C-28.9801 437.232 -28.3851 437.593 -28.2407 438.182C-27.4476 441.416 -24.5455 443.203 -21.23 443.501V429.569C-21.3757 429.558 -21.533 429.547 -21.6996 429.528C-22.6319 429.425 -23.8965 429.192 -25.177 428.67C-26.4586 428.147 -27.7966 427.317 -28.8152 425.996C-29.8446 424.66 -30.4917 422.896 -30.4918 420.616C-30.4918 418.149 -29.2681 416.212 -27.4967 414.888C-25.772 413.599 -23.5127 412.868 -21.23 412.683V409.63C-21.23 409.023 -20.7386 408.531 -20.1324 408.531C-19.5264 408.531 -19.0347 409.023 -19.0347 409.63V412.675C-15.086 412.966 -11.0968 414.92 -9.97983 419.132C-9.82433 419.719 -10.1732 420.32 -10.7591 420.475C-11.345 420.631 -11.9457 420.282 -12.1012 419.695C-12.8686 416.802 -15.7185 415.147 -19.0347 414.872V427.455C-18.8815 427.467 -18.7156 427.482 -18.5394 427.503C-17.5934 427.617 -16.3112 427.872 -15.0138 428.444C-13.7127 429.018 -12.3677 429.924 -11.3498 431.352C-10.3253 432.789 -9.68504 434.682 -9.68504 437.132ZM11.8399 428.511C11.8399 446.182 -2.47561 460.508 -20.1334 460.508C-37.791 460.507 -52.1057 446.182 -52.1057 428.511C-52.1055 410.841 -37.7909 396.515 -20.1334 396.515C-2.47572 396.515 11.8397 410.84 11.8399 428.511ZM-28.2964 420.616C-28.2963 422.454 -27.7845 423.736 -27.0776 424.654C-26.3596 425.585 -25.3823 426.215 -24.3484 426.636C-23.3133 427.058 -22.2617 427.255 -21.4573 427.344C-21.3789 427.353 -21.3029 427.357 -21.23 427.363V414.889C-23.1273 415.071 -24.8966 415.688 -26.1825 416.649C-27.5038 417.636 -28.2964 418.963 -28.2964 420.616ZM401.435 317.303C401.435 322.718 396.565 325.631 391.878 326.03V329.197C391.878 329.804 391.386 330.295 390.78 330.296C390.174 330.296 389.682 329.804 389.682 329.197V326.04C385.569 325.725 381.469 323.529 380.336 318.906C380.191 318.317 380.551 317.723 381.14 317.578C381.728 317.433 382.323 317.793 382.468 318.382C383.284 321.71 386.275 323.544 389.682 323.842V309.55C389.527 309.539 389.359 309.526 389.181 309.506C388.229 309.401 386.939 309.165 385.633 308.632C384.326 308.099 382.961 307.252 381.923 305.905C380.875 304.545 380.216 302.746 380.216 300.42C380.216 297.907 381.461 295.935 383.267 294.585C385.031 293.267 387.345 292.521 389.682 292.335V289.19C389.682 288.584 390.174 288.092 390.78 288.092C391.386 288.092 391.878 288.584 391.878 289.19V292.325C395.915 292.615 399.995 294.61 401.135 298.91C401.29 299.496 400.942 300.098 400.356 300.254C399.77 300.409 399.169 300.06 399.014 299.474C398.224 296.495 395.285 294.797 391.878 294.522V307.434C392.04 307.447 392.217 307.463 392.405 307.485C393.371 307.601 394.679 307.861 396.002 308.444C397.33 309.03 398.701 309.954 399.738 311.41C400.782 312.874 401.435 314.804 401.435 317.303ZM423.438 308.492C423.438 326.542 408.816 341.174 390.78 341.174C372.743 341.174 358.12 326.542 358.12 308.492C358.12 290.441 372.743 275.809 390.78 275.809C408.816 275.809 423.438 290.442 423.438 308.492ZM382.411 300.42C382.411 302.305 382.935 303.621 383.661 304.563C384.398 305.519 385.401 306.165 386.461 306.597C387.522 307.03 388.599 307.232 389.423 307.323C389.513 307.333 389.6 307.338 389.682 307.346V294.539C387.729 294.722 385.905 295.355 384.581 296.346C383.225 297.359 382.411 298.722 382.411 300.42ZM221.114 223.155C221.114 227.714 217.075 230.161 213.202 230.551V233C213.202 233.607 212.711 234.099 212.105 234.099C211.499 234.098 211.007 233.607 211.007 233V230.559C207.606 230.244 204.225 228.394 203.277 224.527C203.132 223.938 203.492 223.343 204.081 223.198C204.67 223.054 205.265 223.415 205.409 224.004C206.043 226.586 208.33 228.063 211.007 228.358V216.911C210.928 216.904 210.845 216.899 210.76 216.889C209.962 216.801 208.876 216.602 207.774 216.152C206.67 215.702 205.509 214.985 204.624 213.836C203.729 212.674 203.172 211.144 203.172 209.181C203.172 207.031 204.24 205.346 205.774 204.2C207.224 203.116 209.104 202.493 211.007 202.314V199.885C211.007 199.279 211.499 198.787 212.105 198.787C212.711 198.787 213.202 199.278 213.202 199.885V202.306C216.537 202.596 219.903 204.277 220.859 207.882C221.014 208.469 220.666 209.07 220.08 209.226C219.494 209.381 218.893 209.032 218.738 208.446C218.128 206.146 215.885 204.778 213.202 204.505V214.814C213.289 214.822 213.379 214.829 213.473 214.84C214.285 214.938 215.386 215.156 216.504 215.649C217.625 216.144 218.792 216.928 219.675 218.167C220.564 219.415 221.114 221.052 221.114 223.155ZM239.326 215.862C239.326 230.907 227.138 243.103 212.105 243.103C197.071 243.103 184.883 230.907 184.883 215.862C184.883 200.817 197.071 188.62 212.105 188.62C227.138 188.62 239.326 200.817 239.326 215.862ZM205.367 209.181C205.367 210.703 205.79 211.75 206.363 212.494C206.947 213.252 207.747 213.77 208.602 214.118C209.459 214.468 210.333 214.632 211.004 214.706H211.007V204.524C209.497 204.697 208.104 205.2 207.088 205.96C206.004 206.77 205.367 207.845 205.367 209.181ZM-0.688087 128.965C-0.688126 133.523 -4.72723 135.97 -8.60022 136.36V138.809C-8.60032 139.416 -9.0918 139.908 -9.6979 139.908C-10.3041 139.908 -10.7955 139.416 -10.7956 138.809V136.368C-14.1966 136.054 -17.5783 134.204 -18.5266 130.337C-18.671 129.747 -18.3103 129.152 -17.7215 129.008C-17.1329 128.863 -16.5389 129.224 -16.3944 129.813C-15.761 132.396 -13.473 133.872 -10.7956 134.168V122.72C-10.8746 122.713 -10.957 122.708 -11.0421 122.699C-11.8408 122.61 -12.9274 122.411 -14.0297 121.962C-15.1331 121.512 -16.293 120.794 -17.178 119.646C-18.0739 118.483 -18.6316 116.953 -18.6316 114.99C-18.6316 112.84 -17.5633 111.155 -16.03 110.009C-14.5795 108.925 -12.6987 108.302 -10.7956 108.123V105.694C-10.7954 105.088 -10.304 104.596 -9.6979 104.596C-9.09187 104.596 -8.60041 105.088 -8.60022 105.694V108.117C-5.26577 108.406 -1.89919 110.087 -0.943207 113.692C-0.78801 114.278 -1.13779 114.879 -1.72359 115.035C-2.30941 115.19 -2.91022 114.841 -3.06569 114.255C-3.6754 111.956 -5.91809 110.588 -8.60022 110.316V120.623C-8.51397 120.631 -8.42364 120.638 -8.33008 120.65C-7.51887 120.747 -6.41622 120.966 -5.29858 121.458C-4.17717 121.953 -3.01192 122.737 -2.12879 123.976C-1.23922 125.224 -0.688087 126.861 -0.688087 128.965ZM17.5224 121.671C17.5223 136.716 5.33487 148.913 -9.69897 148.913C-24.7326 148.912 -36.9192 136.716 -36.9193 121.671C-36.9193 106.626 -24.7326 94.4294 -9.69897 94.4291C5.33488 94.4291 17.5224 106.626 17.5224 121.671ZM-16.4362 114.99C-16.4362 116.512 -16.0138 117.559 -15.4404 118.303C-14.8561 119.062 -14.0568 119.579 -13.2011 119.928C-12.3441 120.277 -11.4706 120.441 -10.7999 120.516C-10.7985 120.516 -10.797 120.515 -10.7956 120.516V110.332C-12.3058 110.505 -13.6989 111.009 -14.7157 111.769C-15.799 112.579 -16.4362 113.654 -16.4362 114.99Z" fill="#DCDBD6"/>
</g>
<defs>
<clipPath id="clip0_57317_2982">
<rect width="375" height="812" fill="white"/>
</clipPath>
</defs>
</svg>
